<?xml version="1.0" standalone="no"?>
<!DOCTYPE svg PUBLIC "-//W3C//DTD SVG 20010904//EN"
 "http://www.w3.org/TR/2001/REC-SVG-20010904/DTD/svg10.dtd">
<svg version="1.0" xmlns="http://www.w3.org/2000/svg"
 width="665.000000pt" height="297.000000pt" viewBox="0 0 665.000000 297.000000"
 preserveAspectRatio="xMidYMid meet">

<g transform="translate(0.000000,297.000000) scale(0.100000,-0.100000)"
fill="#000000" stroke="none">
<path d="M440 2360 c0 -20 7 -20 1425 -20 1418 0 1425 0 1425 20 0 20 -7 20
-1425 20 -1418 0 -1425 0 -1425 -20z"/>
<path d="M4145 2274 c-140 -18 -232 -52 -325 -123 -202 -152 -314 -467 -280
-791 14 -136 33 -207 85 -315 116 -239 353 -373 623 -352 173 14 289 65 403
177 123 121 192 287 208 499 38 518 -205 877 -614 904 -38 2 -83 3 -100 1z
m204 -123 c85 -26 140 -61 202 -129 110 -118 158 -265 166 -505 8 -223 -18
-356 -94 -492 -147 -264 -549 -315 -767 -99 -125 125 -178 287 -177 544 1 183
24 301 81 417 68 138 162 223 290 264 77 25 220 25 299 0z"/>
<path d="M440 2239 c0 -2 7 -26 15 -53 22 -71 22 -1313 1 -1396 -8 -30 -11
-57 -6 -60 4 -3 51 -4 103 -2 l95 3 -16 47 c-12 36 -16 112 -20 333 l-4 286
119 7 c155 9 240 27 339 75 95 46 147 93 183 170 23 50 26 68 26 171 0 104 -3
121 -27 172 -49 105 -156 183 -308 223 -48 13 -122 19 -282 22 -120 3 -218 4
-218 2z m419 -114 c95 -20 160 -54 210 -111 92 -105 95 -271 5 -381 -69 -84
-229 -138 -390 -131 l-69 3 -3 318 -2 317 89 0 c49 0 122 -7 160 -15z"/>
<path d="M1757 2173 c-14 -37 -98 -259 -187 -493 -345 -910 -311 -825 -366
-902 -18 -26 -29 -48 -24 -50 5 -2 47 -2 94 0 l84 3 4 67 c3 57 33 145 207
612 112 300 207 548 211 553 3 4 105 -243 225 -550 175 -450 219 -570 223
-620 l5 -62 86 -3 c47 -2 96 -2 108 0 l23 3 -24 32 c-46 63 -70 121 -329 792
-249 644 -264 680 -288 683 -24 3 -29 -3 -52 -65z"/>
<path d="M2263 2218 c52 -73 93 -169 315 -742 134 -347 253 -657 265 -688 20
-55 41 -74 66 -58 7 3 128 312 270 686 142 374 264 691 271 704 7 14 28 46 47
73 l35 47 -96 0 -96 0 0 -52 c0 -61 -25 -135 -185 -553 -58 -154 -136 -360
-173 -457 -36 -97 -67 -176 -68 -175 -4 4 -416 1051 -426 1082 -5 17 -13 57
-16 90 l-7 60 -109 3 -109 3 16 -23z"/>
<path d="M5446 2148 c-19 -51 -139 -365 -265 -697 -182 -478 -238 -616 -270
-663 l-42 -58 96 0 95 0 0 61 c0 54 21 118 206 612 113 304 208 555 212 559 7
7 421 -1040 441 -1117 6 -22 11 -57 11 -77 l0 -38 109 0 110 0 -39 58 c-26 36
-74 145 -135 302 -52 135 -173 448 -269 695 -161 418 -175 450 -198 453 -24 3
-28 -4 -62 -90z"/>
<path d="M3290 570 c0 -20 7 -20 1430 -20 1423 0 1430 0 1430 20 0 20 -7 20
-1430 20 -1423 0 -1430 0 -1430 -20z"/>
</g>
</svg>
