<?xml version="1.0" encoding="UTF-8"?><svg id="Capa_1" xmlns="http://www.w3.org/2000/svg" viewBox="0 0 3000 3000"><defs><style>.cls-1{fill:#bda897;}.cls-2{fill:#714e37;}.cls-3{fill:#9a7861;}.cls-4{fill:#f6b58b;}.cls-5{fill:#a0795e;}.cls-6{fill:#796f65;}.cls-7{fill:#a3785a;}.cls-8{fill:#b9a18f;}.cls-9{fill:#f7c099;}.cls-10{fill:#7b6c60;}.cls-11{fill:#cbb8a8;}.cls-12{fill:#eaa476;}.cls-13{fill:#c3ae9e;}.cls-14{fill:#573b29;}.cls-15{fill:#907f71;}.cls-16{fill:#c09d83;}.cls-17{fill:#997b67;}.cls-18{fill:#f4af82;}.cls-19{fill:#f5b388;}.cls-20{fill:#776b61;}.cls-21{fill:#ddc6b3;}.cls-22{fill:#dec4af;}.cls-23{fill:#c0ac9c;}.cls-24{fill:#f9c6a2;}.cls-25{fill:#e4cab4;}.cls-26{fill:#f6bc94;}.cls-27{fill:#918276;}.cls-28{fill:#e7d3c2;}.cls-29{fill:#a18c7b;}.cls-30{fill:#cab6a5;}.cls-31{fill:#9f6d4e;}.cls-32{fill:#fefefe;}.cls-33{fill:#938376;}.cls-34{fill:#d0a180;}.cls-35{fill:#ae9886;}.cls-36{fill:#a99789;}.cls-37{fill:#c5a38a;}.cls-38{fill:#f7d5ba;}.cls-39{fill:#714f38;}.cls-40{fill:#d1ac91;}.cls-41{fill:#b8a494;}.cls-42{fill:#86796e;}.cls-43{fill:#533826;}.cls-44{fill:#796d62;}.cls-45{fill:#e0c7b3;}.cls-46{fill:#f9d1b2;}.cls-47{fill:#fff;}.cls-48{fill:#e9cfb9;}.cls-49{fill:#cab3a1;}.cls-50{fill:#f6b58a;}.cls-51{fill:#ab9b8e;}.cls-52{fill:#d5bca8;}.cls-53{fill:#916b50;}.cls-54{fill:#5e4332;}.cls-55{fill:#e19e72;}.cls-56{fill:#d2bba9;}.cls-57{fill:#c2b0a1;}.cls-58{fill:#f4d8c0;}.cls-59{fill:#db996f;}.cls-60{fill:#c4ab97;}.cls-61{fill:#dec9b8;}.cls-62{fill:#e2c8b3;}.cls-63{fill:#f8c49f;}.cls-64{fill:#937f70;}.cls-65{fill:#debca3;}.cls-66{fill:#d7b69d;}.cls-67{fill:#f8d4b9;}.cls-68{fill:#583c2a;}.cls-69{fill:#f8c39e;}.cls-70{fill:#98897c;}.cls-71{fill:#d8ac8b;}.cls-72{fill:#986d51;}.cls-73{fill:#a9988a;}.cls-74{fill:#b08a6f;}.cls-75{fill:#fbe2ce;}.cls-76{fill:#eac2a5;}.cls-77{fill:#f7b48a;}.cls-78{fill:#746558;}.cls-79{fill:#dcc5b3;}.cls-80{fill:#d19269;}.cls-81{fill:#644c3b;}.cls-82{fill:#8b6044;}.cls-83{fill:#f7e6d6;}.cls-84{fill:#a49182;}.cls-85{fill:#f5b387;}.cls-86{fill:#75665a;}.cls-87{fill:#8d664b;}.cls-88{fill:#f6d7be;}.cls-89{fill:#e6cebb;}.cls-90{fill:#c58b65;}.cls-91{fill:#e6c8b1;}.cls-92{fill:#7e6554;}.cls-93{fill:#664733;}.cls-94{fill:#a0765a;}.cls-95{fill:#c2af9f;}.cls-96{fill:#a3846d;}.cls-97{fill:#f9d0b2;}.cls-98{fill:#74533c;}.cls-99{fill:#d6c0ae;}.cls-100{fill:#f1dcc9;}.cls-101{fill:#97877b;}.cls-102{fill:#c0ab9a;}.cls-103{fill:#deb698;}.cls-104{fill:#f3d9c3;}.cls-105{fill:#a39285;}.cls-106{fill:#c29c80;}.cls-107{fill:#a17253;}.cls-108{fill:#ac9b8e;}.cls-109{fill:#f9c9a5;}.cls-110{fill:#82624c;}.cls-111{fill:#c19d82;}.cls-112{fill:#dab9a0;}.cls-113{fill:#c1a896;}.cls-114{fill:#f8c099;}.cls-115{fill:#d9ab8a;}.cls-116{fill:#d8c3b2;}.cls-117{fill:#f3d9c2;}.cls-118{fill:#d3966e;}.cls-119{fill:#9e8e81;}.cls-120{fill:#c2aa98;}.cls-121{fill:#e7a274;}.cls-122{fill:#cfbaa9;}.cls-123{fill:#e3c3aa;}.cls-124{fill:#baa18d;}.cls-125{fill:#f1ddc9;}.cls-126{fill:#f9c8a5;}.cls-127{fill:#8a705c;}.cls-128{fill:#e3c9b4;}.cls-129{fill:#ac866c;}.cls-130{fill:#998474;}.cls-131{fill:#7d583f;}.cls-132{fill:#a8988b;}.cls-133{fill:#988677;}.cls-134{fill:#c08e6e;}.cls-135{fill:#b78360;}.cls-136{fill:#f9caa7;}.cls-137{fill:#b19e8f;}.cls-138{fill:#77695f;}.cls-139{fill:#ebceb7;}.cls-140{fill:#75665b;}.cls-141{fill:#eaccb5;}.cls-142{fill:#9e9187;}.cls-143{fill:#e5ccb8;}.cls-144{fill:#9b6b4c;}.cls-145{fill:#cfb7a4;}.cls-146{fill:#d9c6b6;}.cls-147{fill:#7d695a;}.cls-148{fill:#9a806f;}.cls-149{fill:#f9c7a3;}.cls-150{fill:#a79384;}.cls-151{fill:#b6886a;}.cls-152{fill:#bfac9c;}.cls-153{fill:#ecbb99;}.cls-154{fill:#776252;}.cls-155{fill:#9a8c81;}.cls-156{fill:#f5d7be;}.cls-157{fill:#ae7b59;}.cls-158{fill:#654936;}.cls-159{fill:#dfcbba;}.cls-160{fill:#bfaea0;}.cls-161{fill:#9b8a7c;}.cls-162{fill:#7b685a;}.cls-163{fill:#8f7b6b;}.cls-164{fill:#fae3d0;}.cls-165{fill:#d7c4b2;}.cls-166{fill:#f3b78f;}.cls-167{fill:#e8cab2;}.cls-168{fill:#ae9a8a;}.cls-169{fill:#f9d0b1;}.cls-170{fill:#ad9988;}.cls-171{fill:#907b6b;}.cls-172{fill:#d1b6a0;}.cls-173{fill:#cbb5a4;}.cls-174{fill:#ab998b;}.cls-175{fill:#f1dbc7;}.cls-176{fill:#fae5d3;}.cls-177{fill:#e5ccb7;}.cls-178{fill:#e3cdb9;}.cls-179{fill:#7c5942;}.cls-180{fill:#b8a595;}.cls-181{fill:#776a5f;}.cls-182{fill:#e2c1a8;}.cls-183{fill:#c6b1a0;}.cls-184{fill:#553826;}.cls-185{fill:#b59e8a;}.cls-186{fill:#e0b696;}.cls-187{fill:#ae9b8d;}.cls-188{fill:#f1ddcb;}.cls-189{fill:#8e7360;}.cls-190{fill:#807369;}.cls-191{fill:#6e5a4b;}.cls-192{fill:#98887c;}.cls-193{fill:#c79a7a;}.cls-194{fill:#e5c2a7;}.cls-195{fill:#f3dac4;}.cls-196{fill:#8a6348;}.cls-197{fill:#cf9e7c;}.cls-198{fill:#c7b6a7;}.cls-199{fill:#f3aa7b;}.cls-200{fill:#d2b9a6;}.cls-201{fill:#ad9c8e;}.cls-202{fill:#6f5c4d;}.cls-203{fill:#b08060;}.cls-204{fill:#dcc2ad;}.cls-205{fill:#b29c8a;}.cls-206{fill:#654e3d;}.cls-207{fill:#baa99a;}.cls-208{fill:#9b8b7e;}.cls-209{fill:#d2b6a2;}.cls-210{fill:#dcc5b2;}.cls-211{fill:#b5967e;}</style></defs><path class="cls-32" d="M0,0h3000v3000H0V0ZM1695.37,436.6c128.57,62.58,188.71,228.2,188.38,364.59l2.33,2.64c-.17,8.58.43,22.33-.01,30.59.74,24.28-15.03,96.69-20.68,121.43-10.6,39.98-34.49,89.74-54.2,126.61-51.64,83.39-105.11,113.15-152.51,196.71-75.95,119.65-78.12,269.81-86.91,408.15,0,0-2.56,36.23-2.56,36.23-2.51,21.06,2.04,42.43-3.16,61.66-5.59,8.03-20.09,17.41-28.36,20.58-13.01-34.59-2.09-117.81-2.48-157,.43-.29,1.88-5.6,2.01-7.53,3.92-67.4,7.09-134.44,25.12-200.15,8.74-40.11,23.55-79.58,31.77-119.34.58-10.8-35.77,15.53-36.27,19.38-13.94,10.5-73.8,66.1-80.04,82.7-49,64.62-119.71,152.7-154.98,224.76-28.76,50.54-53.53,109.52-67.21,165.33-36.66,108.92-66.11,232.36-61.8,348.85-.11-.46-2.59,4.13-2.65,5.42-1.9,76.61-29.36-101.81-27.98-108.78-1.42-15.99-3.81-50.95-4.89-67.21-3.79-65.46,8.01-134.38,15.17-198.72,12.89-82.37,57.7-179.15,85.08-258.47,25.25-48.84,52.46-97.11,74.97-147.2,22.72-31.47,66.78-142.29,72.29-175.67,44.84-149.84-5.43-364.48-180.91-398.28-3.08-.29-8.08-5.29-7.71-7.79,51.88-26.15,111.4-63.63,154.99-101.27,29.58-9.31,56.72,20.15,95.34,3.3,39.62-18.19,57.79-79.35,24.24-112.16-60.44-49.48-130.9-14.54-127.55,60.15-2.64,2.05-3.98,29.93-4.69,33.63-6.29,8.7-13.13,17.54-22.69,24.35-56.92,39.84-112.86,79.8-182.05,95.29l-2.05-8.55c52.16-42.67,81.55-107.64,105.19-169.94,3.45-1.81,17.48-9.86,21.13-10.47,6.13-1.39,16.86-6.14,20.75-10.59,14.12-5.64,23.02-18.32,30.71-31.06,21.87-29.45,2.08-74.69-25.56-90.29-53.19-28.97-100.72-4.56-111.57,49.06-11.86,49.12,20.44,54.94,41.78,90.32-.25,6.08,1.21,18.42-1.32,24.09-28.24,64.27-64.82,146.39-138.45,167.64,3.58-28.69,22.14-56.5,21.2-85.53,12.74-41.9-18.84-78.18,2.36-108.92,10.12-22.39,28.47-45.36,16.65-71.44-24.61-64.42-126.82-66.74-141.03,4.53-15.79,75.93,50.12,77.43,94.42,96.87,15.69,10.46,13.78,39.26,13.8,55.48-1.21,8.9-6.1,42.03-7.37,51.46-5.12,17.29-11.95,44.8-20.4,59.83-.31.63.14,1.68.39,2.69-24.64,23.13-61.2,37.22-78.25,66.84-9.88,9.12-17.83,21.49-23.36,33.69-7.18,16.41-9.91,34.5-14.92,51.63-19.94,20.69-48.39,33.13-62.38,59.63-17.08,26.16-26.76,57.46-25.55,89.55,15.8.08,28.37-15.79,40.6-24.81,0,0,24.07-13.65,24.07-13.65,0,0,49.1-14.91,49.1-14.91,0,0,30.7-3.83,30.7-3.83,32.58.67,94.77,45.65,191.33,6.55,14.89-5.78,16.27-14.82,31.1-13.2,10.87,4.43,16,36.03,17.84,46.25,6.31,65.6-27.78,122.96-68.51,172.28-47.33,57.52-132.1,151.85-177.29,210.32-45.95,53.36-93.73,128.09-116.03,196.43-12.2,21.4-16.25,50.93-20.69,75.02-10.52,34.4-7.42,105.04-7.53,142.59,0,1.41,2.97,5.93,2.56,4.58,16.46,192.13,165.09,371.01,323.88,471.48,13.43,7.93,27.42,18.54,31,33.91,12.9,63.96,32.48,137.08,67.26,192.23-18.42-106.11-7.26-269.76,25.7-376.05,6.43-25.69,58.11-143.58,69-171.28,34.21-72.51,82.51-137.85,128.98-201.36,44.21-39.25,157.93-152.77,204.29-194.12,9.5-4.89,19.06-14.23,25.38-23.55,9.38-8.14,15.38-20.39,16.36-33.14-2.01-104.55-11.42-217.51,20.59-318.3,39.64-114.51,126.73-202.85,237.65-250.69,68.56-38.58,129.67,119,149.77,168.04,12.19,40.01,12.23,80.46,7.44,121.21-12.94,76.22-58.63,149.08-119.01,196.95-32.87,23.18-83.07,49.88-118.8,67.56,2.23-1.13-60.04,21.07-61.35,10.09,3.23-2.44,6.38-6.98,7.57-10.88,8.94-8.58,17.68-17.64,26.5-27.51,13.42-14.84,34.07-40.45,50.98-50.22,13.6-6.95,32.84-13.9,46.21-22.81,18.85-4.5,51.53-29.63,62.14-46.52,88.22-83.32,54.96-249.76-29.42-323.98-52.72-29.43-122.19,37.89-154.53,73.08-33.75,40.19-52.14,95-59.12,144.92-2.82,10.77-12.32,72.42-5.26,77.61-.09,30.2,5.25,60.31,10.48,90.05,3.06,17.39-6.49,48.89.94,41.9,19.5-16.97,41.27-34.6,50.86-59.52,11.59-7.28,8.49-41.28,5.84-55.18-9.16-55.58-4.36-118.2,35.51-160.27,60.64-48.29,126.61,9.89,120.95,78.21-4.46,78.25-107.3,105.92-141.93,165.36-30.39,34.83-57.04,73.13-88.66,107.08-44.55,50.06-122.8,126.49-164.64,179.72-75.23,81.39-156.31,176.34-198.79,279.08-4.41,7.69-20.78,38.99-20.62,46.66-16.11,39.07-34.48,82.02-44.02,123.98-37.95,101.11-43.61,208.2-38.4,315.29l2.14,2.67c0,11.63-1.66,60.37,8.76,65.43,3.74,1.82,13.17,2.1,17.2,1.45,21.33-19.15-.39-39.4,18.5-87.76,5.79-22.44,13.9-43.39,23.14-64.61,0,0,43.21-61.01,43.21-61.01,4.55-6.42,11.06-8.64,11.24-13.97l23.12-20.65s25.93-17.88,25.93-17.88c0,0,67.58-36.83,67.58-36.83,16.99-8.6,29.67-8.29,46.82-16.35,96.1-39.69,205.52-70.67,288-135.12,8.45-1.29,37.54-32,44.47-39.61l-.3-2.71c3.76-7.53,4.79-11.36-5.07-13.69-107.12,77.24-263.7,52.01-377.37,101.83-28.57,9.59-57.59,21.87-82.58,38.79-47.02,19.46-85.48,57.73-115.6,98.34-23.62,19.31-4.39-42.95-3.08-49.16,0,0,12.4-22.52,12.4-22.52,23.61-27.85,46.97-49.03,75.65-70.42,12.98-10.06,34.9-16.78,46.26-25.86,8.68-4.09,77.17-27.25,87.86-31.01,95.05-20.94,235.22-35.15,322.95-74.86,6.91,2.02,51.45-25.85,56.79-30.86,4.23.45,27.44-18.87,31.13-23.17,39.81-28.2,87.77-89.15,111.12-134.32,44.29-60.63,69.54-133.24,89.41-204.42,9.04-40.56,18.75-86.92,21.18-127.55.18-3.08-8.47-4.88-9.91-3.22-4.87,4-6.24,11.15-7.6,16.81-.83,2.48-3.23,8.34-2.88,10.7-56.51,109.1-170.94,173.52-279.07,221.81-60.09,26.36-143.82,36.06-201.55,62.27-26.65,9.07-77.85,27.7-100.98,41.26-9.5,2.12-17.1,10.77-25.11,15.43-24.44,12.67-44.02,28.32-70.46,40.6,2.84-10.66,5.01-15.47,7.93-22.51,40.63-58.55,72.86-81.73,139.98-108.17,103.81-34.16,236.63-72.28,327.9-126.66-.08.15,6.27-.54,7.54-1.42,13.05-9.79,42.61-27.26,51.95-39.86l3.31.23c292.78-289.59,86.12-766.44-112.63-1048.58-60.91-76.49-142.68-160.58-231.37-205.08-20.51-12.09-50.83-15.75-49.83,1.22.2,3.34,4.74,7.41,8.35,9Z"/><path class="cls-199" d="M1155,1925.06l.04,31.01c-2.42.16-9.67,34.4,0,36.18.45,5.74-1.62,23.83,2.58,28.42.23,5.1-.7,15.39,0,20.67l-7.64,11.01c5.98,49.28,9.85,94.65,25.88,141.75,1.96,5.36,13.32,11.53,18.45,10.04,6.19-1.8,7.93-11.3,9.45-17.75,6-21.28,1.56-71.6,3.52-93.38,3.91-41.46,10.59-81.81,17.48-121.49l2.88.06c5.66,9.63,38.57,19.22,48.26,24.36,13.24,5.56,32.91,7.3,42.73,17.93,16.75,17.49,33.73,35.19,52.76,48.58-38.71,89.46-83.67,189.87-92.18,287.1-.25,2.57,2.91,8.06,4.09,7.2s4-3.74,4.29-5.75c3.29-23.05,9.38-50.05,15.38-72-18.13,83.82-30.77,235.59-13.48,315.54l-5.26-7.99c-15.67-63.03-32.56-90.86-44.32-159.8-3.76-22.05-13.56-40.41-33.24-52.01-88.53-49.92-157.19-125.17-219.24-204.57-79.3-101.18-117.74-231.21-108.89-358.82h2.58c-.02,2.18.35,6.42.65,10.23,75.02-1.45,49.11,4.43,85.95,14.58,0,0,32.44,8.94,32.44,8.94,25.29,6.97,83.53,9.15,91.06,26.57,12.58,26.51,21.3,62.32,48.51,79.13,9.73-5.85,4.55-46.97,14.87-29.45.59.69.39,2.84.38,3.69Z"/><path class="cls-188" d="M2194.1,1095.61c28.48,88.45,44.6,206.96,25.79,299.97,1.08-22.77,4.87-53.95,4.12-76.67-2.14-2.79-9.01,1.01-12.57,5.7-22.5-3.25-18.05-23.16-17.81-40.36.88-.41,2.21-1.02,3.04-1.51,1.21-.7-2.66-3.8-3.04-3.66-1.75-85.71-47.49-167.11-99.95-232.9-28.01-32.62-53.07-30.63-86.09-15.29-40.81,16.16-76.7,45.23-113.53,69.34l-10.58-.15c-13.11-9.19-27.21-13.55-44.15-17.84-9.73-14.2,10.63-19.95,4.46-32.76.05-1.6,0-4.04,1.07-5.32,1.68-2.02,3.53-2.56,2.88-5.57,19.46-38.87,34.31-86.73,41.34-129.02,35.24-156.99-19.18-367.48-150.18-465.16,98.82,46.31,170.68,133.09,237.86,216.79,100.77,133.97,132.68,276.8,189.57,369.38,11.55,20.84,20.41,43.33,27.79,65.03Z"/><path class="cls-104" d="M1116.57,734.07c.95,29.03-17.61,56.84-21.2,85.53,29.37-5.94,47.99-25.79,67.69-44.41-4.03,10.43-27.08,37.9-33.87,47.45,13.29-1.22,15.49-15.16,23.53-21.8l2.05,8.55c69.19-15.49,125.14-55.45,182.05-95.29,9.56-6.81,16.39-15.65,22.69-24.35-.34,3.41-.36,10.35-.54,15.3-19.84,18.6-44.16,32.69-64.73,49.63l-2.08-.17c-24.51,17.88-74.89,41.59-103.47,57.04,12.29,14.56,36.25,12.39,55.79,19.38,45.87,16.41,82.86,47.33,113.7,84.62,12.77,15.44,15.93,36.65,29.35,51.38,45.89,46.55,36.96,185.81,18.25,245.24l2.09-22.13c-1.96-.49-5.2-1.52-5.63-.66-1.81,1.29-18.67,57.15-20.01,60.76-13.93,3.27-21.81-6.23-33.13-13.12-18.77-11.44-72.2-36.59-93.21-40.46l-.35-2.75c2.99-1.13,4.57-13.23,5.53-15.7,10.86-33.07,18.43-128.21-31.44-131.15-4.24-11.81-21.09-5.48-30.77-25.58-15.4-32-36.25-30.38-33.35-47.49,23.56-20.06,30.03-49.82,32.91-79.36-47.16-2.25-98.29,2.21-131.6,38.1-10.33.12-22.67-16.27-40.94-22.6-9-3.12-13.89-3.9-17.64-10.96l16.2-19.72c4.45-7.39.87-11.15-6.86-6.79,0,0-20.44,18.87-20.44,18.87,17.05-29.62,53.61-43.71,78.25-66.84.18,1.29,5.39,4.75,6.76,3.93,13.71-38.34,28.3-76.99,28.95-117.9,0,0-.19-23.26-.19-23.26,1.09-13.48,6.04,58.55,5.65,46.73Z"/><path class="cls-195" d="M2116.62,1266.13c11.15,49.7,4.65,103.65-21.23,147.5-1.09-9.6,14.25-23.39,2.72-28.84-8.07,13.72-13.54,28.43-23.45,39.19l-30.87,33.52-2.44-.13-4.99,4.98-2.58.07c-17.62,17.74-66.34,31.73-85.77,47.07-19.65,9.88-68.64,77.57-88,87.07,20.98-32.04,45.56-63.52,70.58-93.5,15.53-18.6,78.19-55.01,102.29-86.78,11.22-12.18,19.76-27.17,23.45-43.64,22.39-77.3-50.97-162.68-128.59-116.66-20.39,11.25-47.15,53.92-43.06,75.01.71,1.14,3.85,1.36,4.57.11,0,0,7.73-13.4,7.73-13.4-28.18,66.98,10.02,147.22-13.25,170.96,2.03-5.45,2.72-9.75-1.27-18.27l-15.62,26.53c-.31.52-.66,1.41-.99,1.76-5.79,6.22-12.06,12.52-18.49,17.7-12.18-71.29-21.07-146.05.29-216.43.57-1.9,3.53-8.58,3-10.56.53-1.57,1.88-5.82,1.53-7.47,5.62-10.03,12.1-25.99,16.03-36.43.18-.17,1.99-2.04,2.71-2.79.44-.46-.36-2.1.06-2.58,1.24-1.37,3.8-3.29,2-5.51,11.81-17.29,28.62-39.62,42.09-53.53,1.82-19.39-22.38,9.56-29.24,12.62,21.43-27.05,81.13-77.73,117.83-77.29l10.52,8.69c39.98-.53,69.2,75.56,84.08,107.42,5.16,11.04,15.71,21.78,18.37,33.61Z"/><path class="cls-169" d="M2110.53,1915.01c-16.06,25.36-34.56,49.52-53.71,72.32-16.9,15.04-31.99,34.31-51.67,45.75-23.46-11.02-95.32-60.03-117.93-75.25-37.5-22.14-104.84-83.5-148.42-76.69,57.67-26.22,141.49-35.89,201.55-62.28,21.03-7.44,25.17-2.04,32.35,4.13,7.74,6.66,16.94,12.21,25.59,17.94,35.3,22.27,76.5,53.66,112.25,74.07Z"/><path class="cls-109" d="M2005.15,2033.08c-12.89,15.41-65.77,42.54-82.63,52.22l-2.62-.08-5.03,2.4-2.58.06-5.52,2.76c-3.24.9-9.62,1.62-12.6,2.86-35.62-18.52-86.53-54.3-121.13-75.83-30.41-15.84-98.32-55.14-128.4-72.9-.96-7.78,3.46-12.32,10.07-21.38-4.2-1.61-11.56-1.97-16.88-.79,27.77-14.94,79.53-35.85,111.35-43.56,51.14,13.28,94.82,50.79,138.05,78.99,22.77,15.36,94.12,63.97,117.93,75.25Z"/><path class="cls-117" d="M2219.89,1395.57c-2.27,33.59-9.58,67.87-23.41,98.21l4.18-18.71,1.28-5.71c.25-1.13-3.07-2.96-4.11-2.44-1.56.78-3.83,3.22-4.58,5.42-14.27,41.72-29.8,81.41-53.48,116.8l-.09,2.4c-22.28,31.35-46.12,64.21-78.12,86.4-29.29-19.47-62.25-34.69-91.75-50.53-12.16-6.86-30.67-15.92-43.09-14.26-17.68.74-61.47,15.92-68.99-8.53l18.63-2.07c1.31,10.98,63.58-11.22,61.35-10.09-.58,3.36-.81,7.12-1.12,14.39,10.25-5.95,89.77-41.76,90.01-54.1.07-3.82-43.6,16.77-42.29,16.11,16.11-10.16,56.81-31.89,72.2-43.95,3.75,33.86,80.29-63.37,85.75-73.03l.03-2.32s2.77-2.53,2.77-2.53c0,0,2.13-5.01,2.13-5.01,17.14-23.23,28.49-57.48,36.37-85.65,3.49-12.31,7.13-34.13,6.64-45.72-.12-2.87,1.72-8.43,2.95-10.91-.43,14.62,4.06,22.31,18.28,24.86,3.56-4.69,10.43-8.49,12.57-5.7.76,22.68-3.04,53.94-4.12,76.67Z"/><path class="cls-26" d="M1178.27,1723.03l5.27,14.87c-13.28,44.65-14.58,116.49-23.33,161.33.05-11.07-.81-23.7.87-35.52l7.08-49.8c.36-2.54-4.36-7.37-7.02-7.77,0,0-5.44,28.66-5.44,28.66-1.77,6.04-5.4,8.21-11.11,5.03-51.88-41.34-119.08-55.26-168.27-100.03-32.87-29.3-37.47-31.87-74.73-34.02l7.85-28.46,18.05-38.96c2.36-3.54,5.75-8.28,5.8-12.84,0,0,19.65-30.56,19.65-30.56,60.89,37.19,148.72,94,208.39,135.51,8.96,4.16,13.98,1.98,16.93-7.45Z"/><path class="cls-58" d="M1066.84,932.61c-4.5,4.6-9.62,14.95-2.55,18.39l13.24-10.82c-9.16,11.12-15.15,22.76-13.37,40.34,38.48.48,72.91,5.21,101.57-24.32l-6.87,11.05c-.98,5.55,2.74,5.5,6.67,6.61-2.9,17.1,17.95,15.49,33.35,47.49,9.68,20.1,26.53,13.77,30.77,25.58-3.79,1.46-19.3,13.12-23.01,15.49-50.71,21.27-104.04,22.92-155.78.95-38.99-16.84-83.35.85-120.33,13.93-5.34,2.41-13.56,4.51-18.19,8.05,0,0-25.28,19.3-25.28,19.3-.23-3.25-.83-11.04-.27-14.17,0,0,9.39-31.34,9.39-31.34,5.11-7.22,9.46-17.55,15.97-23.28l-.12-2.52,38.62-35.31-12.7-3.15c7.38-4.64,14.93-12.16,20.92-18.16-1.18,4.85,5.12,11.31,10.7,10.27l9.84-41.05c.68-1.87,3.3-5.82,2.26-8,1.34-2.61,4.14-7.87,5.54-10.46.3-.55-.35-2.12.07-2.58,1.02-1.29,3.64-2.93,2.4-4.96l18.57-20.89c3.74,7.05,8.64,7.84,17.64,10.96,18.26,6.33,30.61,22.72,40.94,22.6Z"/><path class="cls-199" d="M1565.53,2238.06l10.6.72c3.01.21,2.17,11.68,4.83,13.04,24.97,10.75,58.73,15.85,84.31,25.88,5.43,1.75,11.01,5.3,14.04,9.31-27.67,9.79-72.74,28.99-97.83,38.34l-2.63,2.57c-34.44,15.3-67.99,36.47-98.12,59.65-12.9,10.35-22.19,24.81-33.86,36.35l.16,2.3c-15.44,15.96-32.67,47.74-43.76,64.8l.48,2.86c-.67.74-4.82,5.71-5.44,7.69l-20.43,64.39c-.47,1.47.63,6.09,1.27,7.27.86,1.58,5.96-1.95,6.68-3.75l12.8-32.06c-.5,3.53-1.54,9.08-3.06,12.97-18.89,48.35,2.83,68.6-18.5,87.76l1.17-7.6c.38-2.43-11.36-4.72-11.53-7.87-3.83-70.54-10.68-170.51,2.85-240.13l9.35,1.53,5.82-14.69,3.43-2.45,2.12,9.42c.63,2.8,9.01-1.26,10.8-3.81,11.33-16.17,23.52-32.23,38.13-44.17,21.94-19.71,46.2-36.13,73.13-51,6.3-3.48,10.07-8.84,9.52-15.74l-18.1,6.96c18.53-12.99,40.24-23.06,61.77-30.54Z"/><path class="cls-46" d="M1535.2,1648.79c.39,38.95-10.52,122.67,2.48,157-10.91,4.19-6.56-20.51-9.57-31.71-2.74-10.2-5.71-20.82-8.75-30.04-24.84-20.33-71.75-43.86-98.69-61.64,5.99-42.49,10.94-90.89,3.1-132.01-9.5,16.65-24.11,47.9-30.92,64.42-3.17,1.06-6.67,17.87-7.85,20.56-3.54,3.98-9.94,5.94-14.28,3.1l-19.48-12.77c-.74-4.64,5.89-6.11,4.96-10.71l2.69-2.48.07-2.58c1.83-2.4,5.69-4.52,4.98-7.86l2.73-2.45c-.93-2.72,1.54-3.79,3-5.39,2.99-4.44,21.12-36.58,25.57-38.67l.08-2.35,54.47-70.24c-2.57,2.63-.67,10.55,2.7,12.49,27.77,15.99,27.56,18.7,53.79,32.04,30.49,15.51,34.43,8.87,33.43,22.78-2.27,30.25-5.31,69.03-4.53,98.5Z"/><path class="cls-63" d="M1894.16,2093.3c-20.58,8.19-54.73,18.06-77.62,20.39-2.16,0-6.36,1.49-7.75,2.58-4.67-.18-11.89.08-15.5,2.58-4-.22-10.01.58-12.92,2.58-1.32,0-3.82-.24-5.26-.37-33.12-28.11-78.1-50.76-115.92-71.9-20.93-11.81-84.32-41.37-101.52-57.76,5.44-13.3,49.63-35.32,60.66-44.18,1.94-1.25,1.51-7.26-.17-7.77l-5.44-1.64c12.55-8.89,25.41-20.91,41.99-14.64-6.61,9.06-11.03,13.6-10.07,21.38,30.41,17.96,97.78,56.94,128.4,72.9,34.78,21.65,85.3,57.18,121.13,75.83Z"/><path class="cls-26" d="M1612.7,1937.84l5.44,1.64c1.69.51,2.12,6.52.18,7.77-11.22,8.99-55.01,30.72-60.66,44.18,16.75,16.14,80.86,46.1,101.52,57.77,37.82,21.13,82.82,43.8,115.93,71.9l-.33,2.48c-16.75,3.35-117.56,21.26-136.53,24.34-48.55-34.87-103.02-65.88-157.48-92.95l-.14-3.28c2.56.31,16.74-31.63,17.97-33.46,1.46-1.64,3.79-2.73,2.93-5.45,2.73-3.07,7.55-7.56,7.59-12.17l22.44-32.78,8.51-1.22,10.1-10.68c-2.92,7.03-5.09,11.85-7.93,22.51,26.52-12.31,45.9-27.88,70.46-40.6Z"/><path class="cls-149" d="M1537.68,1805.79c8.27-3.17,22.77-12.56,28.36-20.58,3.47,23.77-25.91,24.24-62.08,70.09-8.89,11.28-20.86,22.41-28.89,34.11-13.14-3.27-53.97-37.47-64.26-36.44-3.85-56.34-1.89-115.44,9.86-170.56,26.97,17.79,73.85,41.31,98.69,61.63,3.04,9.23,6.01,19.85,8.75,30.05,3.01,11.2-1.34,35.89,9.57,31.71Z"/><path class="cls-67" d="M1756.29,1592.58c-.18,16.62,3.03,37.1-12.58,48.25,3.75-5.52,6.06-12.7,5.5-22.46-9.86,7.74-14.42,15.33-20.78,22.62l-25.43,20.53c-26.01-8.9-48.13-31.31-73.39-42.95-9.71-4.89-28.39-15.46-38.05-19.07.97-9.85.66-21.02.73-31.03,1.79-7.1,2.13-15.44,2.2-23.26-.86-1.73,7.74-62.65,8.2-66.7l2.44-.15c30.05,16.35,101.33,56.11,131.23,72.6,8.02,4.39,10.77,46.72,19.93,41.61Z"/><path class="cls-67" d="M2074.85,1749.24c-8.67,11.06-5.87.31-10.28,11.75-3.32,8.6,16.27.29,24.01-5.53-2.2,9.47,16.49,15.54,21.98,20.05,17.95,10.36,38.38,24.76,56.92,32.92-7.6,28.6-26.23,54.69-40.93,80.61l.09,2.22c-2.7.73-14.37,21.47-16.12,23.76-35.7-20.35-76.96-51.85-112.25-74.07-8.65-5.74-17.85-11.29-25.59-17.94-7.18-6.17-11.32-11.57-32.34-4.12,45.71-20.9,91.18-43.11,134.51-69.64Z"/><path class="cls-125" d="M1330.5,578.78l2-10.52c.26-1.38-2.32-3.94-3.36-4.74-3.2-2.44-10.25,12.71-19.08,23.09-4.63,5.69-11.93,11.45-17.84,15.73l-2.52-.31c-10.77,5.95-32.83,11.23-41.6,20.49-12.19-26.09-35.95-30.96-41.74-56.42.07-1.86-.16-30.7.09-31.59,0,0,5.09-15.01,5.09-15.01,4.08-5.5,8.44-12.44,10.78-20.05-3.49-3.4-10.12-.8-13.11,2.15,42.95-63.29,166.19,2.46,121.3,77.18Z"/><path class="cls-100" d="M1498.4,677.14l-.67-6.03c-1.41-12.76-21.45,19.69-26.9,22.07-42.19,18.36-55.29-5.83-96.36-3.03-1.59-3.27,5.03-54.7,5.28-59.44,3.6-9.84,9.14-22.4,14.01-31.71.29-1.3-3.3-6.42-4.91-5.55,0,0-6.45,3.47-6.45,3.47,45.5-61.21,165.81,3.96,115.99,80.23Z"/><path class="cls-38" d="M1535.2,1648.79c-.77-29.32,2.27-68.36,4.53-98.5.99-13.92-2.95-7.27-33.43-22.78-26.23-13.34-26.02-16.06-53.79-32.04-6.09-4.58-3.52-12.14-.7-17.41,1.68-1.32,4.34-3.73,5.53-5.34,30.62-49.49,71.91-89.77,116.79-129.45,1.52,8.27-2.4,12.42,5.94,16.93,3.86-11.07,6.24-18.48,8.12-29.22.66-3.77-11.43-3.23-14.31-.52-4.58,4.31-11.86,7.55-16.04,10.69.5-3.85,36.85-30.18,36.26-19.38-8.22,39.77-23.03,79.24-31.77,119.34-18.03,65.67-21.21,132.8-25.12,200.15-.13,1.93-1.58,7.24-2.01,7.53Z"/><path class="cls-175" d="M1038.53,508.9c8.62-3.81,16.3,5.04,23.42,6.35,26.04,4.79,48.78,14.27,60.58,39.74,20.83,1.11,13.46,25.11,11.55,38.57-6.88,1.04-6.46-6.38-13.87,2.68-1.22,4.82-23.65,37.45-17.75,41.55,13.34,1.98,4.12-6.81,16.46-12.64-21.2,30.74,10.38,67.02-2.36,108.92.39,11.82-4.56-60.21-5.65-46.73-6.79-42.36-15.77-52.16-59.36-58.69-36.02-5.78-53.26-39.87-44.23-72.89,0,0,15.3-29.42,15.3-29.42-9.95,1.42-12.26,3.08-17.46,6.33,7.64-12.99,20.21-18.76,33.37-23.77Z"/><path class="cls-43" d="M878.7,1889.06c13.68,202.39,160.92,381.27,327.98,485.7,19.69,11.59,29.49,29.95,33.25,52,11.76,68.94,28.65,96.77,44.32,159.8.39,9.75-.8,4.45-5.48-.11-26.86-47.88-44.66-117.01-55.66-171.51-3.58-15.36-17.57-25.98-31-33.91-86.6-49.57-153.14-123.69-214.16-201.45-79.39-99.82-117.98-230.69-109.05-357.39l6.49-2.77c.29,24.86.63,47.18,3.32,69.63Z"/><path class="cls-156" d="M2212.02,1721.02c1.93-7.1,2.22-18,3.77-26.21,15.91-76.65-47.16,125.28-41.26,103.37l-1.41,5.07-2.69,3.08-.13,2.27-2.82-.16c-18.5-8.14-39-22.58-56.92-32.92-5.46-4.5-24.2-10.57-21.98-20.05,40.73-28.01,94.97-79.78,126.35-121.91,11.71-14.14,14.86-39.44,18.28-56.97.4-2.1-7.91-1.54-8.33-.08.57-2.18,3.54-5.24,5.02-6.94s10.1.13,9.91,3.22c-4.26,47.03-12.57,103.11-27.81,148.24Z"/><path class="cls-83" d="M2194.1,1095.61c-7.38-21.7-16.24-44.19-27.79-65.03-61.32-110.24-128.41-328.57-258.29-450.48-45.13-56.92-105.09-103.49-169.14-135.69-16.03-7.95-29.61-20.75-49.21-19.11l5.69,11.3c-3.61-1.59-8.15-5.65-8.35-9-1.01-16.96,29.32-13.31,49.83-1.22,240.07,129.03,376.76,418.03,457.26,669.23Z"/><path class="cls-114" d="M1968.78,2141.67c-2.5-3.87-2.75-4.47-7.2-1.61,0,0-16.23,14.87-16.23,14.87-.52.22-1.81-.35-2.19.05-5.26,5.43-15.49,10.9-20.19,17.57-6.4.75-11.42,7.38-16.13,10.95-23.06,14.33-46.35,27.39-69.59,41.23h-2.62s-2.58,2.17-2.58,2.17l-2.58.14c-3.37,3.72-3.62,2.53-8.28,2.41-13.15-11.27-28.65-19.64-45.85-26.7l-85.11,11.62c-21.47-10.34-45.88,1.93-67.7,2.56,106.22-31.96,245.53-20.17,341.19-88.96,2.2-.31,8.43,3.54,8,5.75s-1.82,5.77-2.93,7.94Z"/><path class="cls-6" d="M1738.88,444.4c110.63,77.4,181.89,280.18,154.52,412.78-6.53-10.07-7.74-19.37-7.22-30.1.19.34,4.15-3.26,2.87-3.86-.87-.41-2.25-1.34-2.86-1.74.32-143.09-54.75-318.23-190.82-384.88l-5.69-11.3c19.59-1.64,33.17,11.16,49.21,19.11Z"/><path class="cls-4" d="M1821.18,2229.45l-.26,2.36-2.06.24c-10.11,6.39-27.69,11.64-38.48,18.16-1.73-1.21-11.28,4.5-12.94,5.05-4.23-.12-9.04,3.33-12.92,5.16-1.61.17-6.08.31-7.75.39-28.78-11.42-56.74-21.09-85.04-34.27-21.71-10.13-29.59,10.9-52.58-1.8l-22.81,5.08c-3-3.1,36.1-12.86,36.18-12.87,9.19-1.1,19.06-1.53,29.21-4.42,13.39-3.8,25.92-3.3,38.49,1.85l85.11-11.62c17.2,7.06,32.71,15.43,45.85,26.7Z"/><path class="cls-18" d="M1746.77,2260.81v2.98c-4.22-.22-9.42,2.19-12.92,4.47-2.05-.66-6.4,2.21-8.11,3.05,0,0-46.42,15.71-46.42,15.71-3.04-4.01-8.61-7.56-14.04-9.31-25.63-10.05-59.3-15.12-84.31-25.88-2.66-1.36-1.82-12.83-4.83-13.04,0,0-10.6-.72-10.6-.72,10.7-7.79,30.92-10.05,43.62-13.32,23,12.7,30.87-8.33,52.58,1.8,28.3,13.18,56.26,22.84,85.04,34.27Z"/><path class="cls-20" d="M2191.02,1245.48c2.52,17.32,3.14,36.9,2.13,54.26-1.23,2.47-3.07,8.04-2.95,10.91-1.55,1.23-8.55-1.09-8.82-3.45-.23-15.93-.41-34.52-3.21-48.98-7.83-71.29-44.98-137.11-86.98-194.1-22.41-29.47-39.06-38.91-72.89-25.42,0,0-7.97-.1-7.97-.1,0,0-6.87-1.42-6.87-1.42-1.5-.31.98-5.02,1.4-5.78,34.44-14.26,59.77-19.57,88.79,14.77,46.35,56.97,84.97,126.62,97.37,199.31Z"/><path class="cls-182" d="M1930.59,1503.06c-26.72,32.52-53.67,65.58-75,101.09-1.03-.64-6.15-.06-7.47,1.46l-28.59,32.96c-37.45,43.34-78.51,82.3-116.68,123.89,9.56-16.64-12.66-1.19-27.06,16.11-8.12,10.2-17.46,16.68-25,25.02,42.27-53.72,119.66-129.18,164.64-179.72,31.6-33.93,58.3-72.29,88.66-107.09,15.93-13.05,15.18-24.69,26.5-13.72Z"/><path class="cls-16" d="M1718.32,1664.37s-139.52,131.75-139.52,131.75c-24.55,22.72-43.51,49.41-71.37,66.38-1.66,1-3.68-6.82-3.46-7.21,45.88-55.26,59.48-37.6,64.56-77.77.05,2.18,6.6,7.02,8.63,5.27s3.64-6.51,3.72-9.36l.62-21.68c1.76,4.6,2.33,10.66,3.44,21.04,0,0,118.06-111.28,118.06-111.28l25.43-20.53c23.18-7.8-10.7,22.98-10.11,23.38Z"/><path class="cls-75" d="M1403.6,984.55l-16.06-17.63c-13.42-14.73-16.58-35.94-29.35-51.38-30.84-37.29-67.84-68.21-113.7-84.62-19.54-6.99-43.5-4.82-55.79-19.38,9.14-1.48,20.09-1.92,28.48-5.45-.38,2.5,4.63,7.5,7.71,7.79,86.83,15.48,156.16,89,178.72,170.66Z"/><path class="cls-78" d="M1196.08,1066.94l6.61.84c1.42.18,1.44,4.04.39,5.03-9.85,9.28-14.67,2.15-22.33,10.02-123.1,29.63-129.45-30.1-196.02-10.26-41.26,5.14-23.72,8.03-59.45,12.77l5.26-8c137.71-58.12,127.06,33.99,265.55-10.38Z"/><path class="cls-153" d="M1258.53,1535.03c-27.42,79.34-72.16,176.12-85.08,258.47,2.2-18.27,3.55-35.73,10.08-55.6l-5.27-14.87c16.29-60.49,47.65-137.74,72.44-195.79,6.88-2.23,5.81,3.75,7.83,7.79Z"/><path class="cls-202" d="M1751.86,1827.1c-29.82,12.27-62.49,20.59-93.35,29.06-46.74-4.82,253.66-89.01,245.88-94.27,1.66.4,9.64-.77,11.42-.91-11.41,16.33-46.38,21.81-63.91,29.42-4.01,2-100.24,32.97-100.04,36.69Z"/><path class="cls-194" d="M1333.5,1387.83c-22.5,50.09-49.72,98.36-74.97,147.2-2.03-4.06-.94-10.01-7.83-7.79,16.18-36.31,35.53-71.17,54.18-106.32,15.46-29.53,42.88-84.42,57-118.31,2.22-2.09,7.93-2.5,9.98-.15l-38.36,85.37Z"/><path class="cls-59" d="M1385.05,2059.86c-14.15,32.74-59.3,145.61-74.07,175.01-.5,1.06-4.55,1.09-4.84-.02l-1.32-5.09c19.23-61.21,55.24-142.15,82.29-201.1,0,0,3.6-2.55,3.6-2.55-1.24-1.71,17.4-19.82,18.23-21.1-4.59,9.8-22.59,44.64-23.89,54.86Z"/><path class="cls-45" d="M1806.38,1113.61c-10.98,23.66-102.5,117.05-121.87,147.59,1.84-2.23,3.92-10.85,1.03-10.71-8.59.42-13.29,8.6-16.54,15.45-2.32,4.9-7.7,9.69-10.34,13.22,47.4-83.56,100.87-113.31,152.52-196.71-8.47,16.34-24.77,37.56-4.8,31.16Z"/><path class="cls-14" d="M1362.34,2434.1c-.18,1.28-.37,3.88-.37,5.17-5.79-.24-1.66,81.15-2.8,84.36,0,1.71,2.75,7.67,2.67,6.35l4.87,92.7c.17,3.15,11.9,5.44,11.53,7.87l-1.17,7.6c-4.03.65-13.46.37-17.2-1.45-10.42-5.07-8.75-53.8-8.76-65.43,3.88-43.66-11.58-105.79,6.97-147.13l4.27,9.96Z"/><path class="cls-65" d="M1234.28,1235.45c-26.38,44.38-68.23,94.49-105.05,131.01,0,0-2.65-3.32-2.65-3.32-2.05-2.57-35.81,32.1-31.37,27.01,38.65-52.24,115.94-126.84,142.53-186.29,1.97,9.71-13.17,23.3-9.55,26.39l6.1,5.2Z"/><path class="cls-138" d="M2059.28,1353.96l-8.62-1.68-4.32-16.49c-2.72-46.68-46.46-93.59-95.21-77.48,0,0-13.27-.26-13.27-.26l2.61-7.72c64-31.18,129.36,39.97,118.8,103.63Z"/><path class="cls-197" d="M1514.03,1858.5c-46.39,63.42-94.86,128.96-128.98,201.36,1.21-10.01,19.41-45.27,23.89-54.86l-17.44,18.54-1.05-13.25,10.34-18.36c.04,5.5-.73,11.71-1.24,17.47,10.51-12.85,11.77-22.19,16.23-35.62,30.29-38.77,54.16-82.53,88.18-118.48,2.2,10.29,2.67,7.47,10.06,3.2Z"/><path class="cls-181" d="M1005.26,568.07c-.23,71.77,54.18,50.57,89.82,75.82,15.06,16.37,16.07,45.97,16.03,66.7l-4.38,5.32c-.56-8.53-.9-15.27-3.53-20.96-2.36-12.43-.97-31.81-14.22-39.84-26.55-16.08-88.51-13.76-94.13-63.05-.62-5.47,0-17.44.63-22.78.33-2.75,8.42-2.7,9.79-1.22Z"/><path class="cls-112" d="M1496.1,1419.15c-28.75,38-70.36,96.88-100.76,134.06l2.88-11.19c-17.01,1-10.6,14.8-21.32,18.68,9.15-20.05,86.74-116.96,100.9-136.85,3.28-4.31,10.88-10.19,14.96-12.99,1.02-.7,5.73,2.57,5.25,3.72,0,0-1.91,4.57-1.91,4.57Z"/><path class="cls-164" d="M2116.62,1266.13c-2.65-11.83-13.21-22.57-18.37-33.61-14.88-31.86-44.1-107.94-84.08-107.42l-10.52-8.69-19.37,2.27c76.35-34.9,122.95,92.23,132.35,147.44Z"/><path class="cls-48" d="M2032.87,1416.29c-24.1,31.77-86.76,68.17-102.29,86.78-11.29-11-10.62.72-26.5,13.72,25.02-41.86,89.51-74.7,121.81-111.39-.18,4.84,2.37,9.93,6.97,10.89Z"/><path class="cls-140" d="M1834.56,1411.06c3.83,35.16,5.66,70.53,12.78,105.33-.68,2.17-1.78,5.82-2.6,7.74-10.38,5.2-7.57.06-9.69-7.41-6.78-21.98-25.46-133.84-4.75-144.84l4.27,39.18Z"/><path class="cls-34" d="M1615.08,1886.13c-37.63,24.69-44.79,49.41-75.01,80.48l-8.51,1.22-22.44,32.78c1.74-5.13,4.73-7.31,1.05-15.53l-24.65,33c15.7-30.06,34.84-59.63,57-85.3,5.01-5.81,13.49-9.57,20.59-13.13,10.38-9.99,18.3-22.41,28.83-30.72-2.82,4.13-4.58,6.79-8,14.19l31.15-17Z"/><path class="cls-2" d="M1224.76,1971.54c-7.26,39.07-13.29,80.26-17.48,121.49.11-4.53-1.26-10.31-3.14-17.8-7.23,8.06-7.89,16.05-7.87,25.61l.17,71.05c0,3.21,5.96,7.63,6.86,6.07,2.26-22.33-1.81-46.43,3.53-67.07-.57,11.85,1.69,65.2-3.07,75.51-2.15.57-8.03.99-9.45.54-3.91-70.61,1.18-148.41,22.99-215.82.35-1.4,2.38-4.11,3.4-4.95.68-.56,3.25,1.1,3.42,1.96,0,0,.65,3.41.65,3.41Z"/><path class="cls-91" d="M1496.1,1419.15l1.91-4.57c.48-1.15-4.23-4.42-5.25-3.72-4.08,2.81-11.68,8.68-14.96,12.99,4.56-13.32,97.55-112.15,110.4-92.88-1.88,10.74-4.26,18.15-8.12,29.22-8.34-4.51-4.42-8.66-5.94-16.93-27.97,25.74-54.51,49.55-78.03,75.88Z"/><path class="cls-141" d="M2178.53,1676.91c-10.95,13.92-108.68,105.17-113.96,84.09,4.41-11.45,1.62-.7,10.29-11.76,35.62-26.64,70.29-55.29,100.72-88.07l-6.1,11.42c-.73,1.37,1.1,6.32,2.61,5.94l6.44-1.61Z"/><path class="cls-103" d="M1129.23,1366.46c-1.25,6.12-7.02,8.85-10.55,13.46-18.06,22.9-52.69,65.19-72.62,85.21,0,0-7.2,10.18-7.2,10.18,0,0-5.27,2.72-5.27,2.72,0-16.05-9.56,1.07-23.68,12.89-3.13-2.16,83.32-97.46,85.3-100.78-4.43,5.08,29.32-29.58,31.37-27.01l2.65,3.32Z"/><path class="cls-143" d="M1780.65,1289.39c-2.14,5.8-8.19,14.76-10.82,20.76l-4.92-5.59c12.84-47.06,34.31-93.36,64.63-131.69l-1.64,3.94c-.4.95,3.52,3.83,4.21,3.06,7.26-8.48,18.23-20.6,26.06-27.4-31.94,42.16-60.62,87.25-77.53,136.92Z"/><path class="cls-186" d="M1702.85,1762.46c-.58,1.34-1.54,3.84-2.34,4.95-5.93,4.39-10.94,10.08-15.87,15.66-9.88,10.81-78.18,88.31-84.9,98.25-.35-.11-3.19-.76-2.72-1.34,1.9-2.32,7.04-8.73,8.98-11.16,1.37-1.7-1.97-6.91-2.61-8.37-7.03,8.6-17.07,18.93-25.07,25.82-1.06-3.95,144.51-165.94,124.53-123.81Z"/><path class="cls-144" d="M1452.18,2108.53c.02,3.45-38.7,102.13-40.91,108.53l-2.1-5.25c-.67-1.68-6.18,2.73-6.89,4.49l-14.92,37.02c9.54-41.98,27.9-84.88,44.02-123.98,5.69-1.32,16.34-45.54,20.8-20.81Z"/><path class="cls-147" d="M1594.82,1537.48l-.34,7.74c-3.88,6.38-2.15,15.36-2.2,23.26,1.01,19.75-3.06,54.99-5.05,74.94l-1.49-26.14c-13.02,5.49-7.77,56.39-10.29,67.65-2.75,29.7-5.13,59.97-4.24,89.9l9.66-1.39c-.08,2.85-1.69,7.62-3.72,9.36s-8.57-3.1-8.63-5.27c-.95-26.91.85-62.47,3.24-90.21,2.9-35.03,1.92-74.59,9.47-107.91,1.85-18.33,1.05-37.82,8.73-55.81,4.11,7.03,5.01,10.31,4.85,13.89Z"/><path class="cls-77" d="M1190.31,2186.5c-.21,4.53,2.88,12.91,3.99,17.65-5.13,1.49-16.49-4.68-18.45-10.04-6.28-17.22-9.76-33-12.89-49.37,6.97-2.91,8.02-1.83,6.88-10.82,0,0-12.23-92.57-12.23-92.57-1.33-8.55,2.33-20.93-2.58-28.42,0-25.51,0-62.3-.04-87.86,7.28-9.07-1.96-12.86,5.21-25.84-3.46,51.37-2.84,106.38,2.96,160.2,3.61,19.88,11.4,122.99,27.15,127.07Z"/><path class="cls-113" d="M1948,1509.5c2.58,10.48,5.78,5.39,13.41,4.44-16.78,9.49-37.69,35.73-50.98,50.22-11,13.9-25.75,23.42-34.07,38.39-1.08,0-20.57,2.74-20.77,1.61,4.45-10.54,13.98-12.34,21.75-22.09,3.22-2.32,66.85-75.73,70.67-72.57Z"/><path class="cls-177" d="M2196.48,1493.78c-6.52,29.24-37.15,93.15-56.89,116.46.79-13.62,13.55-13.03,8.49-26.84l-8.3,5.72c23.68-35.39,39.21-75.07,53.48-116.8.75-2.2,3.02-4.64,4.58-5.42,1.04-.52,4.36,1.31,4.11,2.44l-1.28,5.71-4.18,18.71Z"/><path class="cls-128" d="M2142.27,1451.87c-5.1,9.18-82.02,106.99-85.75,73.03,33.97-26.63,60.25-59.86,83.16-96.1-1.8,6.42-5.59,15.22-9.13,21.39-.9,1.73,3.16,6.43,4.84,5.5l6.89-3.82Z"/><path class="cls-87" d="M1250.53,1868.31c1.08,1.84-1.41,5.99-1.91,7.66.12,3.46-2.5,6.06-2.79,10.55-2.11,20.71-19.12,64.48-18.2,85.07l-2.88-.06-.65-3.41c-.16-.86-2.74-2.53-3.42-1.96-1.01.85-3.04,3.56-3.4,4.95l-13.34,52.25c3.42-44.91,23.48-117.3,38.25-157.2l7.4-2.69c1.16-.42.87,4,.93,4.83Z"/><path class="cls-190" d="M1470.84,693.18l4.01,3.69c-14.6,37.97-81.5-2.76-102.69,7.95l-7.9-3.36,10.21-11.32c41.07-2.8,54.17,21.39,96.36,3.03Z"/><path class="cls-139" d="M1405.79,1212.16c-5.51,33.52-49.56,144.02-72.28,175.67,0,0,38.35-85.37,38.35-85.37-2.05-2.34-7.76-1.94-9.98.15,13.73-29.74,27.72-75.09,37.52-106.74,2.63-5.36,1.15-8.39,8.47-5.84l-2.09,22.13Z"/><path class="cls-82" d="M1411.27,2217.05c.98,1.87-2.1,6.02-2.77,7.62,0,.69.19,2.02-.06,2.58l-2.33,5.3c.02.74.18,1.97-.11,2.58l-2.43,5.17c.02.86.16,1.97-.13,2.58-.75.97-2.12,3.79-2.52,5.38-5.02,26.22-18.88,60.25-28.83,85.05l-3.82-1.75c-3.17,16.52-10.83,55.58-14.57,71.53,5.32-50.65,14.63-102.57,33.66-149.8l14.92-37.02c.71-1.76,6.22-6.17,6.89-4.49l2.1,5.25Z"/><path class="cls-86" d="M1268.93,1139.26l-8.56,9.4c-3.91-26.02-2.98-69.88-22.5-86.58,0,0-9.63-3.92-9.63-3.92-2.12-.87-3.6-5.81-4-8.05,39.65-18.96,47.96,65.68,44.69,89.16Z"/><path class="cls-79" d="M1196.21,752.03c-11.02,18.9-26.86,35.08-43.48,48.81-8.03,6.64-10.23,20.58-23.53,21.8,26.77-34.92,53.77-73.18,77.48-109.88-2.75,6.17-4.95,12.96-7.37,21.16,10.86-14.38,20.49-28.81,28.06-44.44,4.05,9.08-27.78,54.59-31.16,62.56Z"/><path class="cls-158" d="M1811.36,2248.38c-49.55,25.12-122.31,49.02-174.76,70.73-9.55,3.67-22.99,9.74-31.95,9.06,55.53-22.8,129.24-48.32,182.84-74.15l-7.11-3.81c10.65-6.62,28.67-11.62,38.48-18.16l2.06-.24,3.37-2.19c2.43.74,3.71-1.26,5.17-2.58l2.58-.14,2.58-2.16c1.83-.46,8.75,1.48,10.6,1.9-12.6,8.04-22.69,15.81-33.86,21.73Z"/><path class="cls-12" d="M1302.97,2279.01c-6,21.95-12.1,48.95-15.38,72-.29,2.01-3.06,4.86-4.29,5.75-13.19-9.46,15.95-108.18,21.52-127.01l1.32,5.09c.29,1.12,4.34,1.08,4.84.02l9.71-20.38c-2.75,10.99-14.69,52.62-17.72,64.52Z"/><path class="cls-44" d="M1203.18,550.05c1.67,37.55,27.85,41.1,44.91,72.48,0,0,.36,5.08.36,5.08l-3.49,10.58-6.51-.37c-10.5-39.46-54.6-41.75-43.9-89.59l8.64,1.83Z"/><path class="cls-5" d="M1279.55,1775.21c-.13.65.17,1.96-.12,2.56-3.03.77-2.09,3.03-2.41,5.17.2,3.53-2.94,6.4-3.13,10.65-1.91,15.63-17.88,59.43-23.37,74.71-.06-.83.23-5.25-.93-4.83l-7.4,2.69c-2.61,10.96-8.39,25.13-12.4,35.76,8.27-43.25,27.43-92.68,42.93-134.08,10.47-.05,7.97.6,6.82,7.36Z"/><path class="cls-40" d="M1395.34,1553.21l-.08,2.35c-7.36,4.47-21.79,36.19-28.49,41.48-.48.46-.14,1.73-.07,2.58l-2.73,2.45c-.08.6.24,2.11-.17,2.58l-4.82,5.28-.07,2.58-2.69,2.48c-.06.62.18,2.08-.18,2.58-1.4,1.92-5.52,5.26-4.78,8.12l-7.62,7.28-6.2-1.39c-5.71-1.29-9.23,16.98-14.63,17.02,15.44-30.28,33.52-60.97,54.07-87.9,10.73-3.88,4.31-17.68,21.32-18.68l-2.88,11.19Z"/><path class="cls-176" d="M1134.38,591.58c2.16-13.08,8.09-35.69-11.84-36.59-11.8-25.47-34.54-34.95-60.58-39.74-7.13-1.31-14.81-10.16-23.42-6.35,45.96-20.91,119.95,31.1,95.85,82.68Z"/><path class="cls-139" d="M2212.02,1721.02c-10.85,39.94-23.71,80.53-43.88,116.43,6.6-24.48,18.99-36.86,6.4-39.28-5.93,21.99,57.19-180.07,41.26-103.37-1.55,8.21-1.85,19.11-3.77,26.21Z"/><path class="cls-162" d="M1932.83,1762.51c-27.06,14.93-145.09,54.39-180.97,64.59-.68-3.47,96.4-34.87,100.04-36.69,17.59-7.64,52.39-13.04,63.92-29.42l-9.03.99c21.08-12.7,47.57-16.49,67.38-31.08l2.58-.17,2.82-1.8,2.6-.08c2.84,5.16-.55,6.21-4.43,8.89,0,0-44.91,24.78-44.91,24.78Z"/><path class="cls-39" d="M1372.09,2333.33v5.17c-2.51,3.61-2.76,10.84-2.58,15.5-4.71,6.22-.52,21.18.05,28.55,0,0-7.22,51.55-7.22,51.55l-4.27-9.96c-18.55,41.41-3.08,103.41-6.97,147.13l-2.14-2.67c-.32-58.69-6.98-107.7,4.75-165.49,3.72-15.9,11.42-55.09,14.57-71.53l3.82,1.75Z"/><path class="cls-66" d="M2129.23,1904.75c-12.82,26.27-50.11,80.12-72.61,97.9,8.05-10.14,14.21-19.16,23.25-33.92l-12.84,5.47c21.16-24.39,39.81-52.51,56.6-80.14,0,0,3.02-2.81,3.02-2.81l-.09-2.22,6.32,1.01-3.64,14.7Z"/><path class="cls-131" d="M1604.65,2328.17h2.58c-29.4,10-82.56,47.64-113.41,54.92l7.57-11.07c24.42-15.72,49.42-30.86,75.26-43.96-8.67,18.93,13.31.33,28,.12Z"/><path class="cls-121" d="M1439.21,2328.38l6.65-9.65c-.49-1.01-4.09-6.59-5.37-5.47-5.76,5.26-13.38,11.49-19.4,15.07,27.76-29.68,62.01-54.49,100.77-66.68.55,6.9-3.21,12.26-9.52,15.74-26.93,14.87-51.2,31.28-73.13,51Z"/><path class="cls-38" d="M1937.71,1592.46l46.6-23.6c-1.31.66,42.36-19.93,42.29-16.11-.24,12.34-79.76,48.15-90.01,54.1.31-7.27.54-11.03,1.12-14.39Z"/><path class="cls-201" d="M1989.98,1038.58l-10.11,9.82c11.67.17,21.7-3.96,30.47-9.81l7.97.1c-29.16,10.05-66.96,37.03-93.14,54.16-14.42,1.13-24.82,20.12-29.73,13.31,6.87-18.51,74.36-55.8,94.53-67.58Z"/><path class="cls-123" d="M2168.13,1837.45c-2.01,7.45-30.99,61.11-38.91,67.3l3.64-14.7-6.32-1.01c17.07-25.42,29.3-54.15,43.75-80.45l.13-2.27c2.59-1.54,3.45-5.52,4.1-8.15,12.59,2.41.21,14.79-6.4,39.28Z"/><path class="cls-30" d="M1925.17,1092.86c-26.14,17.31-58.75,52.15-81.64,74.1,0,0-11.41,12.91-11.41,12.91-.68.77-4.6-2.1-4.21-3.06,0,0,1.64-3.94,1.64-3.94,0,0-.03-2.33-.03-2.33,3.91-2.22,6.99-6.26,7.83-10.55,18.81-21.16,44.78-52.19,67.2-66.91-1.05,2.06-9.92,11.38-9.1,13.08,4.9,6.81,15.3-12.18,29.73-13.31Z"/><path class="cls-71" d="M1033.59,1478.04v2.58c-5.08,3.65-9.83,10.48-13.35,15.52,1.42,1.54-42.04,55.04-43.48,57.29l.28-5.91c.09-1.82-5.85-.7-7.06.64l-8.98,9.94c1.16-8.64,75.56-109.77,72.58-80.06Z"/><path class="cls-204" d="M2224.77,1614.94c-3.04,14.87-37.13,49.94-46.25,61.97,0,0-6.44,1.61-6.44,1.61-1.51.38-3.34-4.57-2.61-5.94l6.1-11.42c17.47-18.21,33.5-40.42,43.85-64.1-1.57,9.96-5.16,22.54,5.35,17.87Z"/><path class="cls-52" d="M2139.59,1610.25c-15.3,25.95-36.74,48.09-58.75,69.8l-3.31-.23c11.39-14.31,21.2-17.72,18.43-27.08-6.11,3.93-9.66,6.17-13.32,8.99,20.89-21.85,40.03-45.14,57.03-70.19l.09-2.4,8.3-5.72c5.06,13.8-7.7,13.22-8.49,26.84Z"/><path class="cls-122" d="M1843.85,1047.15l-.08,2.33c-8.86,15.2-21.18,41.48-32.11,53.78,1.09,2.79-1.91,3.56-2.98,5.42,0,0-2.29,4.94-2.29,4.94-19.97,6.39-3.68-14.81,4.8-31.16,0,0,28.59-56.75,28.59-56.75l-4.05,19.06,8.12,2.38Z"/><path class="cls-193" d="M976.76,1553.43v2.12c-5.07,2.52-14.95,23.69-17.97,28.31-1.46,1.64-3.81,2.67-2.94,5.43l-2.69,2.44c2.91.35-19.63,32.85-19.88,33.78l3.71-10.19-3.21-3.17c-4.05-.26-16.36,23.23-19.21,26.12,12.29-29.24,34.04-69.14,55.4-90.13,1.21-1.34,7.14-2.46,7.06-.64l-.28,5.91Z"/><path class="cls-210" d="M1872.97,1234.61l-3.92-4.47c-6.15-.68-15.72,21.81-19.08,25.81,6.22-26.75,36.56-69.73,62.14-81.88,1.61-.37,4.56,5.36,2.95,7.02-13.47,13.91-30.27,36.24-42.09,53.53Z"/><path class="cls-106" d="M1343.64,1632.98c.66,2.23-1.16,3.68-2.3,5.14.98,2.84-1.71,3.47-2.84,5.35,0,0-33.54,67.13-33.54,67.13l2.02-8.22c-16.51-1.11-14.93,24.08-22.92,28.9,5.92-21.28,26.74-63.27,38.75-82.67,5.4-.04,8.91-18.31,14.63-17.02l6.2,1.39Z"/><path class="cls-95" d="M1873.42,973.87c-5.92,18.45-12.92,36.66-20.41,54.56-3.16,2.9-5.54,8.52-5.35,12.74-1.35,1.42-4,3.74-3.81,5.98l-8.12-2.38,4.05-19.06c11.2-22.23,17.66-46.73,25.61-69.86-1.92,9.08-2.03,29.37,3.68,22.93l4.35-4.91Z"/><path class="cls-90" d="M1418.7,2485.79c2.89-4.08-11.2,13.46-12.76,11.22l-2.18-3.12-.48-2.86c11.05-16.85,28.33-48.96,43.76-64.8l2.55,3.92c2.79,1.26,21.01-17.89,23.56-19.33-.18,5.33-6.69,7.55-11.24,13.97l-43.21,61.01Z"/><path class="cls-80" d="M1439.21,2328.38c-14.61,11.95-26.79,28-38.13,44.17-1.79,2.55-10.17,6.61-10.8,3.81l-2.12-9.42c10.15-11.9,20.44-29.94,32.93-38.62,4.3-2.76,8.63-5.65,13.34-9.77,6.02-4.66,6.12-8.94,11.42.17l-6.65,9.65Z"/><path class="cls-171" d="M1605.25,1462.53c-.11,1.3-.44,3.87-.41,5.17-2.75,5.49-8.38,62.37-10.02,69.78.16-3.58-.74-6.86-4.85-13.89-9.96,21.01-4.38,44.94-11.45,65.56-.74-36.71,8.46-91.34,17.46-125.3.37-1.64,1.81-4.83,2.53-6.12s5.86-.67,6.09.77l.65,4.02Z"/><path class="cls-108" d="M1889.07,911.94c-3.79,14.12-9.79,56.03-20,66.83-16.37,7.43,14.89-101,14.37-108.19-.87,23.01-7.47,45.12-.95,50.07l6.58-8.71Z"/><path class="cls-64" d="M2018.05,1721.1c-12.71,8.42-69.91,38.01-85.22,41.41l44.91-24.78c3.87-2.67,7.27-3.74,4.43-8.89,16.96-11.63,37.83-18.9,54.02-31.54,1.53-.02,10.24-.46,11.96-.54-8.85,11.55-19.31,17.11-30.09,24.33Z"/><path class="cls-200" d="M1684.52,1261.21l-2.11,4.9c-.85.69-2.46,1.86-2.96,2.74l-30.98,54.37c1.39-4.03,1.53-8.86.42-14.56-7.08,7.8-12.64,13.54-15.92,19.65,8.65-23.07,20.49-43.33,36.04-62.36,3.25-6.85,7.95-15.04,16.54-15.45,2.89-.14.81,8.48-1.03,10.71Z"/><path class="cls-105" d="M1286.75,767.47l-69.58,38.62c-8.39,3.53-19.34,3.98-28.48,5.45,28.57-15.47,79.01-39.14,103.47-57.04.94,1.55,16.74-7.01,17.91-7.32-8.28,7.95-15.72,16.06-23.32,20.28Z"/><path class="cls-55" d="M1398.62,2537.43l-12.8,32.06c-.72,1.8-5.82,5.33-6.68,3.75-.64-1.18-1.73-5.8-1.27-7.27,2.53-5.55,19.96-70.43,25.87-72.08l2.18,3.12c1.56,2.24,15.65-15.3,12.76-11.22-7.9,16.87-13.18,34.37-20.08,51.64Z"/><path class="cls-160" d="M1374.2,682.56c-.2,1.9.13,5.54.28,7.59l-10.21,11.32,7.9,3.36c-28.5,20.05-54.23,46.68-85.41,62.64,7.6-4.22,15.04-12.32,23.32-20.28l-15.83,7.49c20.58-16.94,44.88-31.02,64.73-49.63-.19-11.21,2.23-32.47,3.29-43.39.14-1.39,1.91-6.27,1.93-5.55l.4,25.88c.05,2.89,8.56,2.32,9.59.57Z"/><path class="cls-133" d="M1840.37,1330.75c-6.18,26.19-6.14,53.45-5.81,80.31l-4.27-39.18c-12.35,7.29-8.06,32.09-8.85,44.35-7.25-18.07,2.18-77.37,13.59-97.89,3.54,4.03,4.88,8.2,5.34,12.41Z"/><path class="cls-15" d="M2007.62,1491.12c-9.06,6.04-26.71,14.14-36.06,17.92l-17.69,1.7s7.64-9.69,7.64-9.69c8.6-2.29,56.82-31.93,65.7-25.66-6.33,6.82-12.47,10.99-19.58,15.73Z"/><path class="cls-173" d="M2173.26,1389.98c-6.13,15.06-16.24,40.27-26.06,52.04,0,0-2.13,5-2.13,5l-2.77,2.53-.03,2.32-6.89,3.82c-1.68.93-5.74-3.77-4.84-5.5,7.11-14.64,27.16-63.01,34.7-78.33-.33,4.44-7.49,23.64-4.47,27.51,1.31,1.59,6.5-.9,7.7-2.6l4.8-6.8Z"/><path class="cls-115" d="M1599.74,1881.32c-13.29,11.69-24.05,24.78-36.65,38.33-7.1,3.56-15.58,7.32-20.59,13.13,14.79-28.42,39.92-48.6,60.89-72.33.65,1.46,3.98,6.66,2.61,8.37-1.97,2.45-7.06,8.81-8.98,11.16-.47.58,2.37,1.23,2.72,1.34Z"/><path class="cls-142" d="M1899.3,836.94c-.29,20.74-4.39,41.88-7.64,62.29-2.32,2.47-2.73,8.82-2.58,12.72,0,0-6.58,8.71-6.58,8.71-6.52-4.95.08-27.06.95-50.07.38-10.02,1.69-27.15,2.62-36.17.26,7.5,2.53,15.21,7.33,22.77l5.9-20.24Z"/><path class="cls-74" d="M1304.96,1710.6c1.04,4.28-2.98,3.22-2.3,7.75-3.33,2.85-5.79,8.44-5.35,12.77l-2.73,2.73c-3.74,13.6-9.28,28.33-15.02,41.36,1.16-6.78,3.64-7.41-6.82-7.36l-17.13,46.09c5.74-28.35,16.43-56.24,28.46-82.66,7.98-4.82,6.41-30.01,22.92-28.9l-2.02,8.22Z"/><path class="cls-70" d="M1379.76,630.71l-5.56,51.85c-1.03,1.75-9.55,2.32-9.59-.57-.36-15.12-1.03-36.52,2.03-51.31,0,0,8.74-12.28,8.74-12.28,2.88,3.26,4.77,8.66,4.38,12.31Z"/><path class="cls-206" d="M1819.12,2124.03v2.58c-43.26,9.85-168.92,34.26-214.47,41.34,47.93-15.38,166.31-33.21,214.47-43.93Z"/><path class="cls-110" d="M1873.38,2217.33c-7.45,6.43-53.25,30.27-62.02,31.06,11.17-5.92,21.26-13.69,33.86-21.73l-7.97-1.91c17.84-11.39,37.81-22.08,57.34-30.52.2,13.46-19.33,16.18-21.21,23.11Z"/><path class="cls-203" d="M1480.59,2049.37l.03,2.31c-.7.64-1.7,2.13-2.29,2.94-6.32,13.89-18.47,37.71-23.34,53.9h-2.81c-4.45-24.75-15.13,19.52-20.8,20.81,4.91-23.93,30.02-61.74,41.85-83.67.68-1.19,4.81-4.11,5.95-4.65s3.41,2.18,3.02,3.38c0,0-1.6,4.97-1.6,4.97Z"/><path class="cls-29" d="M1615.37,1416.16c-3.46,14.02-6.65,32.2-10.13,46.38l-.65-4.02c-.23-1.44-5.38-2.06-6.09-.77-2.65,2.46-10.95,44.58-12.22,48.75-1.81-6.47,12.08-75.19,12.95-77.51,2.68-7.15,5.97-12.62,11.34-23.2,2.86,4.94,3.81,7.15,4.8,10.38Z"/><path class="cls-102" d="M1872.97,1234.61c1.65,2.33-.3,3.58-2,5.51-.42.48.38,2.12-.06,2.58l-2.71,2.79c-3.93,10.43-10.41,26.4-16.03,36.43-8.55-2.7-10.06-.45-12.66,7.59,0,0-5.02,12.94-5.02,12.94.84-19.52,17.12-51,27.89-67.31.95-1.59,5.59-6.26,6.68-5.01,0,0,3.92,4.47,3.92,4.47Z"/><path class="cls-8" d="M2077.53,1679.82c-9.2,12.5-39.02,30.17-51.95,39.86-1.27.88-7.62,1.57-7.54,1.42,10.84-7.27,21.19-12.74,30.09-24.33l-9.58.46c17.12-14.36,38.15-32.39,57.4-44.49,2.77,9.36-7.04,12.77-18.43,27.08Z"/><path class="cls-119" d="M2190.2,1310.65c.49,11.59-3.15,33.41-6.64,45.72-6.94,1.22-9.42,2.25-9.24-6.29,1.95-30.22,5.11-61.56,3.85-91.86,2.8,14.46,2.98,33.06,3.21,48.98.27,2.36,7.27,4.68,8.82,3.45Z"/><path class="cls-179" d="M886.73,1751.94c.04.72.05,1.98-.09,2.58-4.41,7.08-1.59,20.39-5.01,28.43.51-3.67-1.67-8.13-6.48-8.32-10.47,33.96-5.33,99.76-6.93,134.93.41,1.34-2.56-3.17-2.56-4.58.75-49.47-6.06-120.38,16.06-164.76,3.26,2.62,4.78,7.57,5,11.73Z"/><path class="cls-11" d="M1238.44,637.82l-.11,16.38,4.32-6.27c-7.74,30.58-23.54,60.72-43.33,85.98,3.66-16.11,27.97-66.32,34.52-81.95,2.53-5.67,1.07-18.01,1.32-24.09,1.34,2.93,2.5,6.63,3.29,9.95Z"/><path class="cls-134" d="M1509.11,2000.61l-.02,1.97c-3.43,2.91-7.76,8.07-7.64,12.78-2.37-.44-16.76,31.92-18,33.73l-2.86.27,1.6-4.97c.39-1.2-1.89-3.92-3.02-3.38-6.11.48-23.9,37.38-27.18,41.65,6.11-27.68,41.07-75.46,58.16-97.6,3.68,8.23.69,10.41-1.05,15.53Z"/><path class="cls-22" d="M1008.26,899.06l-18.57,20.89-1.89-5.12c-4.5-2.62-11.34,7.61-14,10.28,7.88-20.56,27.68-38.29,43.8-52.56,7.69-4.35,11.33-.63,6.86,6.79,0,0-16.2,19.72-16.2,19.72Z"/><path class="cls-17" d="M1986.98,2062.24c-5.34,5.01-49.89,32.87-56.79,30.86,11.6-8.69,26.87-12.2,34.14-25.39l-26.53,9.9,59.55-36.05c4.49-1.04,5.24-3.4,8.66,2.84l-19.03,17.85Z"/><path class="cls-151" d="M933.29,1625.52c-.21.58-.11,1.54-.09,2.38-4.78,6.57-19.8,41.58-23.76,49.41,1.26-4.59,1.6-6.88-2.73-11.87l-12.83,21.91c3.07-20.27,23.25-54.29,35.11-70.93,3.93-5.3,3.78-5.68,8.01-1.09l-3.71,10.19Z"/><path class="cls-37" d="M2056.62,2002.65c-3.24,4.08-34.11,38.64-38.51,36.43,14.5-16.88,28.33-24.19,19.77-30.84-5.69,5.12-10.13,9.33-14.7,12.47,10.47-11.5,22.12-22.53,33.64-33.37,4.24-3.74,8.27-7.88,10.21-13.13l12.84-5.47c-9.04,14.76-15.2,23.78-23.25,33.92Z"/><path class="cls-89" d="M1925.07,1273.21c-16.74,13.73-24.33,41.31-35.83,57.89-17.95,4.62,11.98-51.51,18.13-57.18.02,10.72,13.19,1.39,17.7-.71Z"/><path class="cls-60" d="M1261.08,1178.1l-3.24,12.9c-2.36,1.31-2.51,2.84-1.95,5.55-5.01,7.88-9.41,21.74-15.42,28.07.06-.07-.05,2.13-.06,2.58-1.42,1.63-6.25,5.82-6.14,8.25l-6.1-5.2c-3.62-3.09,11.52-16.68,9.55-26.39,5-9.54,9.97-23.36,13.1-33.56l1.58,14.5,8.67-6.7Z"/><path class="cls-167" d="M912.04,1033.36c-4.23-5.02-11.03-1.39-15.54,3,10.21-16.95,24.81-31,41.47-41.47l12.7,3.15-38.62,35.31Z"/><path class="cls-205" d="M1631,1364.25c-1.15,4.54-14.29,46-15.63,51.91-.99-3.23-1.94-5.44-4.8-10.38-5.37,10.58-8.66,16.05-11.34,23.2,2.41-12.99,6.22-26.05,10.34-38.77,5.97.26,14.46-50.52,21.43-25.96Z"/><path class="cls-180" d="M2183.56,1356.37c-3.79,9.48-9.23,46.58-22.8,43.01-1.05-1.27-1.07-4.15-.6-6.14,4.46-21.1,11.84-44.16,15.35-65.29l-1.2,22.13c-.18,8.51,2.31,7.52,9.24,6.29Z"/><path class="cls-120" d="M1648.46,1323.22c-3.78,12.06-10.25,30.47-17.46,41.02-6.97-24.57-15.46,26.23-21.43,25.96,9.01-29.94,15.88-58.25,39.32-81.55,1.1,5.7.96,10.53-.42,14.56Z"/><path class="cls-189" d="M1669.3,1842.15c-2.75,2.1-15.01,9.7-16.9,12.24-.96,1.17,4.25,2.46,6.11,1.77,8.78-3.27,22.12-5.96,31.64-8.4-27.77,10.58-52.34,26.72-81.19,33.63l11.32-13.24c15.8-9.13,31.81-20.28,49.02-26Z"/><path class="cls-104" d="M1754.62,1625.65c5.7-72.43-5.56-151.04,3.16-227.71,1.11-28.21,6.7-61.12,12.05-87.79,2.63-6,8.68-14.96,10.82-20.76-32.01,100.78-22.6,213.75-20.59,318.3.19,5.76-2.8,13.98-5.44,17.96Z"/><path class="cls-35" d="M981.67,937.95c1.03,2.96-1.75,5.13-2.26,8,0,0-9.84,41.05-9.84,41.05-5.58,1.04-11.88-5.41-10.7-10.27,2.05-8.45,4.15-17.78,7.41-25.69l5.96-14.47c.71-1.73,6.98-5.35,7.62-3.59l1.81,4.96Z"/><path class="cls-107" d="M1473.12,2224.83c-11.19,7.78-25.36,21.47-36.27,28.33-22.64,11.95-21.94,27.87-33.84,20.92,14.21-17.32,30.88-36.36,49.25-49.41l-13.07,16c8.64,5.26,26.98-18.13,33.93-15.84Z"/><path class="cls-178" d="M1131.42,593.73l-2.31,11.08-10.18,20.33c-12.34,5.83-3.13,14.62-16.46,12.65-1.89-.28-.89-6.48.06-8.29l17.68-33.27c.93-1.76,5.19-5.29,6.81-4.54l4.4,2.04Z"/><path class="cls-150" d="M1268.93,1139.26c-1.35,13.16-4.64,26.04-7.85,38.83l-8.67,6.7-1.58-14.5c6.04-19.69,4.62-41.66,4.88-61.97,2.32,12.88,2.95,23.92,4.66,40.33l8.56-9.4Z"/><path class="cls-168" d="M1852.16,1281.93l-.02,2.43c-1.22.59-1.72.65-1.68,1.41,0,1.61.42,4.7.02,6.22-3.07,4.61-8.34,32.98-10.11,38.76-.46-4.2-1.8-8.38-5.34-12.41-3.95,8.79-6.87,14.69-8.33,20.28,1.63-16.74,6.09-33.82,12.81-49.11,2.73-8.15,3.93-10.25,12.66-7.59Z"/><path class="cls-211" d="M2018.11,2039.07c-3.69,4.3-26.9,23.62-31.13,23.17l19.03-17.85c-3.43-6.23-4.15-3.89-8.66-2.84,10.52-13.82,28.36-20.03,40.52-33.32,8.56,6.65-5.27,13.96-19.77,30.84Z"/><path class="cls-7" d="M909.44,1677.31l-7.85,28.46-4.52,7.46c-6.63-22.59-14.02,19.34-18.77,20.64,4.05-23.92,15.08-48.3,28.41-68.44,4.32,4.98,3.99,7.28,2.73,11.87Z"/><path class="cls-130" d="M886.79,1090.49l-.34,4.79c-3.57,5.51-1.66,13.2.88,20.44-5.94,7.85-5.03,9.72-16.38,10.19-.67-17.66.22-30.87,10.49-45.97,2.32,1.96,5.54,7.83,5.35,10.55Z"/><path class="cls-173" d="M2069.76,1444.6c-7.82,12.62-21.29,23.63-33.63,30.8,4.06-4.14,8.29-9.75,13.02-15.63-.19-4.77-1.15-4.71-5.36-2.27l30.87-33.52c2.64-.72,5.72-1.27,8.8-1.5l-13.7,22.12Z"/><path class="cls-145" d="M1860.17,1521.98c-5.62,8.68-15.2,16.29-23.34,22.48,2.78-9.38,7.73-18.42,10.52-28.06,6.64-5.8,14.3-12.05,19.48-19.46,7.45,1.77,6.47,5.12,2.78,10.48,0,0-9.43,14.56-9.43,14.56Z"/><path class="cls-196" d="M1519.38,2198.97c-11.36,9.08-33.28,15.8-46.26,25.86-6.95-2.29-25.29,21.1-33.93,15.84l13.07-16c7.31-5.48,16-10.59,23.72-15.55l-4.5,9.66c16.04-6.03,28.32-11.73,40.27-20.19,1.77.55,5.81.36,7.63.39Z"/><path class="cls-21" d="M2095.39,1413.63c-7.05,11.42-15.48,22.37-25.63,30.97l13.7-22.12c-3.08.23-6.16.78-8.8,1.5,9.91-10.76,15.38-25.47,23.45-39.19,11.52,5.45-3.81,19.24-2.72,28.84Z"/><path class="cls-28" d="M1257.92,630.9c-16.81,40.13-33.03,88.74-61.71,121.13,0,0,29.55-50.68,29.55-50.68,1.43-2.46,1.75-9.89,1.61-11.88,5.31-10.96,12.64-30.44,15.27-41.54.99-5.17,3.97-15.36,5.8-20.32l9.47,3.29Z"/><path class="cls-185" d="M935.62,1087.46l-24.07,13.65c-8.17,6.42-21.85,19.28-30.54,23.11l6.32-8.49c-2.54-7.24-4.45-14.93-.88-20.44l.61,9.38,25.28-19.3-5.16,7.64c8.05.79,20.24-2.83,28.44-5.54Z"/><path class="cls-146" d="M1498.4,677.14c-5.15,14.02-17.29,25.04-30.9,30.98,1.78-2.61,7.98-7.98,7.35-11.25,0,0-4.01-3.69-4.01-3.69,8.26-4.65,28.28-41.44,27.56-16.04Z"/><path class="cls-166" d="M1384.73,2369.39l-5.82,14.69-9.35-1.53-2.1-15.63c1.88-4.8,2.2-12.53,2.05-18.09.91-.98,2.58-3.62,2.58-5.17,3.44-8.05,8.73-18.92,12.98-25.89-.71,5.14-19.07,61.58-.35,51.61Z"/><path class="cls-135" d="M1436.85,2253.16c-12.62,14.74-25.96,25.53-39.38,42.1l-12.21,4.77c2.05-5.19,3.8-14.29,7.39-18.4,8.12-9.28,16.54-18.51,26-25.94l-15.63,18.39c11.9,6.96,11.19-8.97,33.84-20.92Z"/><path class="cls-165" d="M1379.76,630.71c.39-3.65-1.5-9.05-4.38-12.31l-8.74,12.28c1.98-12.26,7.08-25,15.78-33.76l6.45-3.47c1.61-.86,5.2,4.25,4.91,5.55-4.88,9.31-10.41,21.87-14.01,31.71Z"/><path class="cls-157" d="M1496.27,2390.16c-10.58,9.44-32.04,28.63-42.53,38.01-.93.84-3.59,2.85-4.16,1.97l-2.55-3.92-.16-2.3c12.77-10.36,20.29-26.64,33.86-36.35l-6.86,10.19c-.55.82,1.96,3.84,2.74,3.37,6.26-3.87,13.77-8.31,19.65-10.96Z"/><path class="cls-3" d="M1899.22,2201.81c-7.18,6.4-17,11.8-25.84,15.52,1.88-6.93,21.41-9.65,21.21-23.11l-16.18,7.45c12.34-11.11,30.8-16.15,41.72-28.8l2.84-.31s3.9,1.7,3.9,1.7c1.42,4.19-25.37,24.55-27.65,27.54Z"/><path class="cls-53" d="M897.07,1713.24c.9,1.83-1.97,6.05-2.54,7.69.63,2.09-1.9,6.17-2.62,7.97,0,0-.33,4.78-.33,4.78-2.99,4.38-3.11,13.52-4.86,18.26-.23-4.15-1.74-9.11-5-11.73-3.9,9.67-6.59,15.8-8.53,22.17l5.11-28.5c4.78-1.37,12.13-43.21,18.77-20.64Z"/><path class="cls-23" d="M1094.91,791.63c-2.77,9.2-8.97,27.04-12.74,36.87-2.72.59-8.23-3.67-7.15-6.61,8.45-15.07,15.29-42.5,20.4-59.83-1.41,13.24-8.87,38.58-.5,29.58Z"/><path class="cls-42" d="M1279.04,620.43l-5.02,1.77-11.37.61c-2.5.13-3.71-5.05-4.06-7.87,4.39-1.86,27.46-10.57,31.08-12.89l2.52.31,2.15,5.9c-.67,3.63-12.5,9.63-15.32,12.18Z"/><path class="cls-124" d="M896.19,1059.15l-9.39,31.34c.19-2.71-3.03-8.59-5.35-10.55-3.14,5.9-6.92,11.98-8.18,15.83.91-8.72,10.23-51.94,22.92-36.62Z"/><path class="cls-92" d="M1930.19,2093.1c-24.64,15.46-80.43,26.95-111.06,33.52v-2.58c9.82.68,96.7-22.47,113.31-36.45l-9.91-2.28c8.8-6.56,31.44-13.36,41.81-17.6-7.26,13.18-22.56,16.72-34.14,25.39Z"/><path class="cls-172" d="M912.04,1033.36l.12,2.52c-6.93,5.47-10.56,16.12-15.97,23.28-6.07-7.37-8.26-2-12.9,3,3.43-9.76,15.44-39.57,28.75-28.8Z"/><path class="cls-99" d="M2049.37,1392.75c-3.77,9.19-10.82,16.05-16.49,23.53-4.6-.96-7.15-6.06-6.97-10.89l15.43-28.57c-.56,3.02-1.24,9.11-1.8,13.78-.33,2.75,8.16,3.9,9.83,2.14Z"/><path class="cls-96" d="M1633.3,1873.58c-10.45,8.36-37.3,23.3-49.37,29.54,5.42-12.75,10.59-16.88,19.48-25.23,0,0,16.87-9.75,16.87-9.75l-11.32,13.24c9.17-2.65,16.26-4.98,24.34-7.81Z"/><path class="cls-1" d="M2227.4,1607.04c-.64,1.67-3.63,5.96-2.63,7.9-11.82,5.3-5.6-11.25-5.24-20.45,0,0,2.77-8.12,2.77-8.12l2.58-9.87c.42-1.46,8.73-2.02,8.33.08l-5.81,30.46Z"/><path class="cls-116" d="M1007.32,555.76l-5.47-8.19-7.3,10.67c5.09-15.68,7.4-30.61,28.07-31.9l-15.3,29.42Z"/><path class="cls-72" d="M1522.2,2372.28c-11.96,8.97-32.49,21.58-45.59,28.84-.79.48-3.29-2.55-2.74-3.36l6.86-10.19c6.53-5.21,13.71-11.08,20.66-15.56l-7.57,11.07c9.9-2.21,19.35-7.13,28.38-10.8Z"/><path class="cls-209" d="M1743.7,1640.83c-6.33,9.32-15.88,18.66-25.39,23.55-.23-.78,33.08-31,10.11-23.38,6.37-7.29,10.92-14.88,20.78-22.62.56,9.76-1.75,16.93-5.5,22.46Z"/><path class="cls-187" d="M2036.14,1475.4c-7.32,7.48-18.96,13.64-28.51,15.71,7.12-4.74,13.26-8.91,19.58-15.73-3.71-1.4-8.68-1.41-11.91.13,2.52-1.77,17.28-10.38,18.48-13.1l2.58-.07,4.99-4.98,2.44.13c4.22-2.44,5.18-2.5,5.36,2.27-4.73,5.88-8.96,11.49-13.02,15.63Z"/><path class="cls-163" d="M984.72,1072.55c-18.78,4.5-58.66,20.9-77.54,20.45,5.89-11.35,12.69-11.11,23.35-15.68l-5.26,8c35.73-4.73,18.19-7.63,59.44-12.77Z"/><path class="cls-152" d="M2056.33,1372.64c-1.77,6.78-4.3,13.63-6.96,20.11-1.68,1.75-10.16.61-9.83-2.14.86-10.38,4.69-29.23,6.48-39.19-.06,2.84.03,22.48,4.92,21.88l5.39-.66Z"/><path class="cls-62" d="M1883.71,1488.66c-4.67,12.49-13.19,25.16-23.55,33.31l9.43-14.56c3.7-5.36,4.66-8.72-2.78-10.48l15.62-26.53c3.99,8.51,3.31,12.82,1.27,18.27Z"/><path class="cls-159" d="M1330.5,578.78c-3.98,6.52-7.71,12.52-12.73,17.9,1.33-6.85.86-12.18-7.72-10.06,8.83-10.37,15.88-25.53,19.08-23.09,1.04.79,3.62,3.36,3.36,4.74l-2,10.52Z"/><path class="cls-98" d="M1604.65,2167.96h2.58c-10.94,3.86-79.05,26.86-87.86,31.01,0,0-5.17,0-5.17,0,28.14-14.04,59.67-24.04,90.44-31.01Z"/><path class="cls-174" d="M1108.62,738.73c-1.48,11.34-4.69,22.56-7.68,33.77-4.77,5.1-4.97,12.75-6.02,19.13-8.37,9.01-.91-16.35.5-29.58,0,0,5.49-38.51,5.49-38.51l1.88-12.95c.15-3.78-2.79,67.25,3.04,33.38.31-1.38,2.75-5.76,2.8-5.25Z"/><path class="cls-93" d="M886.05,2002.8c-10.34-25.89-17.09-72.09-17.83-98.41,3.64,11.91,14.7,87.76,17.83,98.41Z"/><path class="cls-33" d="M1111.11,710.59c.07,9.12-1.3,18.97-2.5,28.13-.05-.51-2.49,3.87-2.8,5.25-5.84,33.82-2.88-37.01-3.04-33.38l.42-15.63c2.63,5.69,2.97,12.42,3.53,20.96l4.38-5.32Z"/><path class="cls-57" d="M1211.53,519.51l-5.09,15.01c-4.32-2.54-9.71-.86-13.06,3.03,1.66-9,4.42-16.38,8.83-23.94,7.54-1.88,7.8-2.3,9.33,5.9Z"/><path class="cls-118" d="M1385.07,2317.78c-4.24,6.95-9.55,17.86-12.98,25.89,0-2.58,0-7.76,0-10.34,0,0,13.16-33.31,13.16-33.31l12.21-4.77-12.4,22.52Z"/><path class="cls-161" d="M2059.28,1353.96c-.67,6.15-1.41,12.76-2.96,18.68l-5.39.66c-7.8-3.52-3.97-29.97-4.59-37.51l4.32,16.49,8.62,1.68Z"/><path class="cls-132" d="M1007.32,555.76c-.57,3.25-1.77,9.09-2.06,12.31-1.37-1.48-9.47-1.53-9.79,1.22-.64,5.34-1.25,17.31-.63,22.78-4.47-9.88-2.91-22.76-.28-33.83l7.3-10.67,5.47,8.19Z"/><path class="cls-137" d="M1237.86,1062.08c-14.83-1.62-16.22,7.42-31.1,13.2l8.34-11.57-8.46-1.28,17.61-12.33c1.16,9.13,6.84,8.91,13.62,11.98Z"/><path class="cls-13" d="M1940.58,1263.16c-5.03,3.01-33.81,25.43-33.21,10.76,4.86-5.54,14.5-14.26,20.37-17.94l-4.67,9.59,17.5-2.42Z"/><path class="cls-183" d="M989.69,919.94c1.24,2.03-1.38,3.66-2.4,4.96-.43.47.22,2.03-.07,2.58-1.4,2.59-4.2,7.86-5.54,10.46l-1.81-4.96c-.64-1.76-6.91,1.86-7.62,3.59l-5.96,14.47c.79-11.81,5.85-26.21,14.92-34.35.97-1.11,6.1-3.21,6.6-1.87l1.89,5.12Z"/><path class="cls-61" d="M1211.53,519.51c-1.52-8.23-1.81-7.77-9.33-5.9l7-12c2.99-2.95,9.62-5.55,13.11-2.15-2.35,7.61-6.7,14.55-10.78,20.05Z"/><path class="cls-155" d="M1206.43,534.52c.07,4.21-3.94,10.56-3.26,15.53l-8.64-1.83c-.49,7.94-1.68,16.95-.73,23.18-4.83-10.07-2.51-22.6-.43-33.86,3.36-3.89,8.74-5.58,13.06-3.03Z"/><path class="cls-36" d="M1844.74,1524.13c-2.92,6.77-5.77,13.55-7.91,20.32l-3.97,3.73c-7.42,6.98,2.12-24.51-.94-41.9,1.97,3.79,3.88,14.08,4.87,19.17.44,2.17,6.47-.57,7.95-1.32Z"/><path class="cls-111" d="M1968.78,2141.67l.3,2.71c-6.86,7.51-36.09,38.4-44.47,39.61,22.09-23.61,18.39-12.51,30.02-32.89l-9.27,3.84,16.23-14.87c4.43-2.85,4.7-2.26,7.2,1.61Z"/><path class="cls-198" d="M1317.77,596.68c-5.19,5.55-10.8,10.49-17.98,13.16l7.07-8.09c.7-.8-.8-5.9-1.94-5.71l-5.59.93c3.36-2.54,7.97-7.11,10.72-10.34,8.58-2.12,9.05,3.23,7.72,10.06Z"/><path class="cls-31" d="M1203.76,2186.4c-1.52,6.44-3.27,15.95-9.45,17.75-4.81-13.27-4.06-22.53-3.16-35.94.06-1.28,2.54-5.87,2.65-5.42l.51,24.14c1.42.45,7.3.03,9.45-.54Z"/><path class="cls-208" d="M1940.48,1250.33l-2.61,7.72,13.27.26-10.57,4.86-17.5,2.42,4.67-9.59c2.96-1.85,9.37-4.14,12.74-5.66Z"/><path class="cls-192" d="M1206.76,1075.29c-8.46,3.29-17.52,5.18-26.02,7.53,7.66-7.87,12.48-.74,22.33-10.02,1.05-.99,1.03-4.85-.39-5.03l-6.61-.84c2.75-.91,7.8-3.32,10.56-4.5l8.46,1.28-8.34,11.57Z"/><path class="cls-51" d="M1299.79,609.84c-3.89,4.45-14.62,9.2-20.75,10.59,2.86-2.59,14.61-8.52,15.32-12.18,0,0-2.15-5.9-2.15-5.9l7.12-5.38,5.59-.93c1.14-.19,2.64,4.91,1.94,5.71l-7.07,8.09Z"/><path class="cls-207" d="M1274.02,622.2l-16.11,8.7-9.47-3.29-.36-5.08c2.78-2.06,7.51-6.4,10.52-7.6.35,2.83,1.56,8.01,4.06,7.87l11.37-.61Z"/><path class="cls-142" d="M1886.08,803.83l-2.33-2.64-.2-46.8c1.91,16.09,2.43,32.54,2.53,49.43Z"/><path class="cls-84" d="M1961.51,1501.05l-7.64,9.69,17.69-1.7c-2.64,1.07-7.68,3.5-10.15,4.9l-9.24,2.14c-2.09.49-3.62-4.63-4.17-6.58,4.02-3.43,8.73-6.18,13.51-8.45Z"/><path class="cls-148" d="M1284.24,2586.56l5.26,7.99.86,12.63c-5.39-8.18-8.42-13.9-11.6-20.73,1.15,1.31,3.74,4.29,4.9,5.63.89,1.03.51-5.17.58-5.53Z"/><path class="cls-129" d="M1924.6,2183.98c-6.7,7.16-16.91,13.34-25.39,17.82,2.4-3.11,28.99-23.25,27.65-27.54,0,0-3.9-1.7-3.9-1.7,4.69-6.77,15.01-12.04,20.19-17.57.38-.4,1.67.16,2.19-.05l9.27-3.84c-11.63,20.38-7.93,9.28-30.02,32.89Z"/><path class="cls-204" d="M2219.53,1594.48l2.77-8.12-2.77,8.12Z"/><path class="cls-176" d="M1129.11,604.81l2.31-11.08,2.66-.18c-.94,3.52-3.29,7.9-4.97,11.26Z"/><path class="cls-104" d="M1075.01,821.88l2.71-5.42-2.71,5.42Z"/><path class="cls-142" d="M1886.18,827.08v-5.61c.62.41,2,1.34,2.87,1.74,1.29.6-2.68,4.21-2.87,3.86Z"/><path class="cls-38" d="M1876.36,1602.55c1.51-3.17,4.81-8.23,7.57-10.88-1.19,3.89-4.34,8.44-7.57,10.88Z"/><path class="cls-114" d="M1966.35,2147.49l2.72-3.11c-.74.87-2,2.37-2.72,3.11Z"/><path class="cls-85" d="M1160.21,1899.22c-7.17,12.98,2.07,16.77-5.21,25.84.02-.85.22-3-.38-3.69-10.32-17.54-5.15,23.62-14.87,29.45-27.17-16.74-35.92-52.67-48.51-79.13-7.54-17.42-65.77-19.6-91.06-26.57l-32.44-8.94c-36.83-10.15-10.92-16.03-85.95-14.58-1.05-10.73-.66-28.17-.17-38.65,1.52-5.42,2.4-11.92,2.56-17.88,1.95-8,3.68-17.52,5.14-25.83,1.8-1.98,2.66-7.45,2.58-10.34.72-1.81,3.24-5.86,2.62-7.97.58-1.64,3.44-5.85,2.54-7.69l4.52-7.46c37.28,2.16,41.82,4.69,74.73,34.02,49.2,44.78,116.39,58.68,168.27,100.03,5.42,3.1,9.47,1.08,11.11-5.03,0,0,5.44-28.66,5.44-28.66,2.65.39,7.38,5.22,7.02,7.77l-7.08,49.8c-1.68,11.82-.82,24.45-.87,35.52Z"/><path class="cls-50" d="M1374.74,2010.19l-.11,2.52c4.01,3.28,8.74,12.4,12.49,15.94l-15.73,33.81c-19.05-13.4-36-31.09-52.77-48.58-9.82-10.63-29.49-12.37-42.73-17.93l-34.88-14.65c-5.4-2.27-10.92-5.78-13.38-9.7-1.15-10.35,10.53-56.25,15.21-66.78,24.5,12.44,86.04,39.54,111.92,50.7,17.04,7.48,7.09,47.26,19.97,54.67Z"/><path class="cls-85" d="M1162.97,2144.74c-5.77-30.2-9.58-60.81-13-92.38l7.64-11.01c-.4,2.94,15.34,101.74,11.65,100.76,0,0-6.3,2.63-6.3,2.63Z"/><path class="cls-184" d="M1207.28,2093.02l-.45,17.86c-5.33,20.63-1.26,44.74-3.53,67.07-.9,1.56-6.86-2.87-6.86-6.07l-.17-71.05c-.02-9.56.63-17.55,7.87-25.61,1.88,7.49,3.25,13.28,3.14,17.8Z"/><path class="cls-93" d="M881.63,1782.95c-.1,1.36-.29,3.87-.3,5.16-.13-.57-2.85,4.09-2.84,5.43.07,11.19.18,82.67.21,95.52-2.69-22.45-3.02-44.77-3.32-69.63l-6.49,2.77c.12-15.17,1.46-31.73,6.26-47.57,4.81.19,6.99,4.65,6.48,8.32Z"/><path class="cls-85" d="M1155.04,1992.25c-9.67-1.78-2.42-36.01,0-36.18v36.18Z"/><path class="cls-179" d="M881.14,1811.37h-2.58l-.07-17.83c0-1.33,2.71-6,2.84-5.43l-.19,23.26Z"/><path class="cls-87" d="M1222.68,1984.71c-.18-3.45.55-8.52,2.12-10.55l-2.12,10.55Z"/><path class="cls-85" d="M1157.62,2020.67c-1.08-1.38-2.58-5.61-2.58-7.75,1.04,1.4,2.49,5.63,2.58,7.75Z"/><path class="cls-104" d="M1894.04,1100.22c-18.66,18.26-48.74,47.65-64.52,70.32l.03,2.33c-51.96,63.62-70.04,146.05-86.42,224.97-1.42,6.42,2.52,22.21-4.64,24.79-13.21,4.77-15.92-15.18-22.44-19.09-12.72-7.64-21.78-13.02-30.45-24.9-6.23-8.53-20.4-13.6-27.99-21.04-5.69-5.58-10.04-9.16-17.08-11.28,0,0,7.94-23.1,7.94-23.1,0,0,30.98-54.37,30.98-54.37.84-.65,2.56-1.81,2.96-2.74,0,0,2.11-4.9,2.11-4.9,23.96-37.28,115.86-125.98,127.14-157.95,10.95-12.22,23.24-38.62,32.11-53.78,6.18,12.82-14.19,18.57-4.46,32.76,16.94,4.28,31.04,8.65,44.15,17.84l10.58.15Z"/><path class="cls-27" d="M2004.87,1031.39c-4.41,7.83-.13,5.46,5.47,7.2-8.77,5.85-18.8,9.98-30.47,9.81l10.11-9.82c3.91-2.05,11.11-5.49,14.89-7.19Z"/><path class="cls-117" d="M2193.13,1260.98c-1.05-4.33-1.75-10.34-2.11-15.5.76,4.7,1.96,10.04,2.11,15.5Z"/><path class="cls-108" d="M1889.06,909.56c-.1-3.47.84-8.45,2.6-10.34-.26,3.41-1.3,8.09-2.6,10.34Z"/><path class="cls-108" d="M1892.06,894.06l2.08-7.98c-.3,2.26-1.37,6.2-2.08,7.98Z"/><path class="cls-122" d="M1847.71,1038.58c.49-3.23,2.93-8.02,5.3-10.16-1.48,3.54-3.33,7.26-5.3,10.16Z"/><path class="cls-117" d="M2193.62,1284.24c.04-1.35.03-3.78,0-5.17.39-.14,4.25,2.96,3.04,3.66-.83.48-2.16,1.09-3.04,1.51Z"/><path class="cls-27" d="M2007.58,1030.88c.05-.34,1.89-2.27,2.9-2.58l-2.9,2.58Z"/><path class="cls-122" d="M1844.84,1044.16l2.82-2.99-2.82,2.99Z"/><path class="cls-67" d="M1382.24,1250.14c-18.3,54.76-51.94,121.6-77.36,170.79-9.09,1.31-18.42-3.55-25.81-10.33-29.01-22.13-87.21-48.62-118.46-76.69,21.65-28.05,59.98-69.4,74.52-101.09,0,0,5.3-5.62,5.3-5.62,0-.45.12-2.65.06-2.58,6.12-6.28,10.34-20.22,15.42-28.07,21.01,3.87,74.45,29.02,93.21,40.46,11.32,6.9,19.2,16.39,33.13,13.12Z"/><path class="cls-10" d="M1196.52,906.81l-12.93,3.26c-19.72-7.59-56.5-3.53-75.07,7.24l-5.15-.52-1.75-4.9c23.56-19.97,65.83-18.03,96.81-17.38-.65,4.31-1.72,9.27-1.91,12.3Z"/><path class="cls-49" d="M1190.71,935.82c-2.9,7.24-6.28,14.2-10.34,20.79-4.81-.51-7.68-6.19-7.05-11.07l10-28.44.04,14.98c0,1.13,2.79,5.48,3.8,5.1l3.55-1.35Z"/><path class="cls-170" d="M1196.52,906.81c-.65,10.02-2.07,19.66-5.82,29.01l-3.55,1.35c-1.01.38-3.8-3.96-3.8-5.1.01-5.01-.19-17.12.24-22.01l12.93-3.26Z"/><path class="cls-25" d="M1180.36,956.61c-3.98,6.45-9.04,12.32-14.83,17.27-3.94-1.11-7.65-1.06-6.67-6.61,3.87-6.37,9.9-16,14.46-21.73-.63,4.88,2.24,10.56,7.05,11.07Z"/><path class="cls-56" d="M1095.85,925.17c-7.69,6.31-23.96,19.63-31.56,25.83-11.07-8.43,6.73-22.56,13.29-28.65l-3.41,6.9c-.65,1.31,3.34,4.69,4.63,4.01,5.04-2.79,12.02-6.34,17.07-8.08Z"/><path class="cls-41" d="M1103.38,916.8c1.85.17,5.88.7,7.73.52-10.13,5.32-21.87,10.48-32.33,15.94-1.28.68-5.27-2.7-4.63-4.01,0,0,3.41-6.9,3.41-6.9,2.57-2.22,7.6-6.14,10.46-7.68l.77,8.13c5.86-1.23,10.85-2.81,14.57-6Z"/><path class="cls-101" d="M1111.27,904.18l-9.65,7.72,1.75,4.9c-3.73,3.18-8.72,4.77-14.57,6l-.77-8.13c7.17-3.78,15.62-7.88,23.24-10.49Z"/><path class="cls-23" d="M1095.61,788.11c-.18-5.25,1.9-11.57,5.32-15.62-1.46,5.46-2.69,11.08-5.32,15.62Z"/><path class="cls-160" d="M1289.34,757.31l2.82-2.8c-.62.76-1.92,2.26-2.82,2.8Z"/><path class="cls-67" d="M1255.56,1193.8c-.12-.93,2.04-2.87,2.29-2.8-.23.92-1.59,2.16-2.29,2.8Z"/><path class="cls-102" d="M1847.63,1299.97c.66-2.8,1.65-6.38,2.85-7.98l-2.85,7.98Z"/><path class="cls-102" d="M1850.63,1289.41c.19-1.8-1.23-4.42,1.51-5.05l-1.51,5.05Z"/><path class="cls-62" d="M1863.12,1501.56l2.71-2.86-2.71,2.86Z"/><path class="cls-173" d="M2031,1465.45l2.77-3.02-2.77,3.02Z"/><path class="cls-173" d="M2036.36,1462.36l4.99-4.98-4.99,4.98Z"/><path class="cls-210" d="M1868.2,1245.51l2.71-2.79c-.72.76-2.53,2.63-2.71,2.79Z"/><path class="cls-210" d="M1870.97,1240.13c.63-.73,2.2-2.43,2.39-2.62l-2.39,2.62Z"/><path class="cls-66" d="M2056.81,1987.33l7.77-8.27c-1.67,2.68-5.3,5.94-7.77,8.27Z"/><path class="cls-206" d="M1821.71,2124.03c4.55-8.18,1.26-5.33-5.17-7.3v-3.04c23.22-1.98,56.84-12.42,77.62-20.39,5.36-1.99,13.35-1.86,18.12-5.62l2.58-.06,5.03-2.4c1.8-.36,10.64,1.97,12.53,2.36-14.94,13.4-102.62,36.45-110.73,36.45Z"/><path class="cls-92" d="M1919.9,2085.22l-5.03,2.4,5.03-2.4Z"/><path class="cls-92" d="M1912.28,2087.69c-1.35.87-3.96,2.33-5.52,2.76l5.52-2.76Z"/><path class="cls-38" d="M1855.59,1604.16l2.14.46c7.56,24.48,51.24,9.23,68.99,8.53,12.41-1.66,30.93,7.4,43.09,14.26,29.45,15.81,62.54,31.1,91.75,50.53l-22.99,19.29-2.38.07c-16.7,12.36-36.82,20.14-54.02,31.54,0,0-2.6.08-2.6.08l-2.82,1.8c-10.03,1.65-20.2,8.3-28.86,13.43-18.5,5.68-35.04,17.09-53.83,20.59-5.94,1.02-15.5-3.06-20.93-6.97-13.76-9.9-28.03-14.83-42.74-22.2-18.32-9.18-35.11-21.7-52.91-32.07-4.98-2.9-8.7-5.39-8.31-10.21,25.97-25.48,54.35-59.53,78.96-87.68,1.32-1.52,6.44-2.09,7.47-1.46Z"/><path class="cls-177" d="M2133.9,1599.5c1.8-2.7,3.84-5.63,5.78-7.97l-5.78,7.97Z"/><path class="cls-128" d="M2142.3,1449.55l2.77-2.53-2.77,2.53Z"/><path class="cls-128" d="M2147.2,1442.02l2.91-2.77c-.47.89-2.07,2.09-2.91,2.77Z"/><path class="cls-24" d="M1209.66,1628.02c-15.18,33.15-20.53,71.03-36.22,103.44-1.77,1.91-9.81.55-12.1-.99-59.95-41.71-147.2-98.1-208.4-135.51l.22-3.22,2.69-2.44c-.85-2.79,1.45-3.75,2.94-5.43,2.82-4.78,13.24-25.49,17.97-28.31v-2.12s41.19-52.44,41.19-52.44c-13.5,12.36,58.09,45.93,55.28,43.96l37.43,26.28c14.28,10.02,30.65,14.64,44.23,25.71l40.46,33c3.56,2.9,11.42,1.24,14.3-1.91Z"/><path class="cls-193" d="M927.49,1638.36c1.7-3.68,3.44-7.28,5.71-10.46-1.48,3.64-3.53,7.54-5.71,10.46Z"/><path class="cls-47" d="M1183.6,910.07c-7.35,67.83-61.76,74.59-119.44,70.46-3.77-31.98,22.3-51.5,46.95-63.22,20.97-4.61,51.29-16.8,72.49-7.24Z"/><path class="cls-22" d="M984.28,932.97l2.94-5.48-2.94,5.48Z"/><path class="cls-183" d="M979.42,945.95c.37-1.53,1.68-4.22,2.41-5.38l-2.41,5.38Z"/><path class="cls-22" d="M987.29,924.9l2.56-2.79-2.56,2.79Z"/><path class="cls-167" d="M906.87,1041.49c.97-1.74,3.69-4.32,5.28-5.61l-5.28,5.61Z"/><path class="cls-68" d="M1604.65,2328.17c-14.71.22-36.66,18.81-28-.12l2.2-.13,2.63-2.57c2.79.43,3.58-.89,5.2-2.5,43.33-16.22,102.39-40.5,147.17-54.59,3.19-.43,7.84-2.4,10.34-4.45.65-.14,2.01.33,2.58-.02l5.17-3.19c4.66,0,10-1.53,12.92-5.16,4.52-.03,9.74-1.61,12.92-5.16,2.28-1.2,7.81,3,9.72,3.75-53.47,25.77-127.45,51.4-182.84,74.15Z"/><path class="cls-39" d="M1361.84,2529.98c.08,1.32-2.66-4.64-2.66-6.35,1.16-3.5-3.03-84.31,2.79-84.36,0,0-.13,90.7-.13,90.7Z"/><path class="cls-131" d="M1584.07,2325.28c.62-.7,1.75-2.15,2.61-2.43-.09.17-2.29,2.2-2.61,2.43Z"/><path class="cls-131" d="M1578.85,2327.92l2.63-2.57-2.63,2.57Z"/><path class="cls-90" d="M1446.87,2423.92c3.09-3.81,6.74-7.55,10.49-10.72-2.85,4-6.57,7.78-10.49,10.72Z"/><path class="cls-55" d="M1403.28,2491.02l2.54-2.79c-.45.93-2.3,2.77-2.54,2.79Z"/><path class="cls-126" d="M1385.01,1635.37c-2.74,9.1-21.41,62.37-9.29,64.72,2.45-5.61,5.84-11.66,7-15.37-7.92,58.77-16.29,121.24-14.35,181.15,2.02,25.68,5.89,57.16,6.31,82.45h-2.58c-1.3-6.81,2.47-17.75-2.58-23.26.86-8.36-2.78-42.62-3.6-51.6-2.52-28.61,1.08-63.39,1.97-92.35,0,0,5.15-47.7,5.15-47.7.26-2.41-4.01-7.61-7.2-8.32l-6.05,36.84c-2.12,6.5-7.16,9.25-13.42,5.68,0,0-38.87-23.02-38.87-23.02-9.15-4.95-11.19-6.36-10.11-16.08,2.37-3.42,5.5-8.61,5.42-12.77,1.21-1.5,2.98-2.84,2.17-5.16l33.54-67.13c1.43-1.6,3.68-2.64,2.84-5.35,1.14-1.47,2.95-2.9,2.3-5.14l7.62-7.28,19.48,12.77c4.34,2.84,10.74.88,14.28-3.1Z"/><path class="cls-127" d="M1426.51,1627.75c-2.77,49.28-15.05,97.72-17.68,147.44.42-9.99-1.05-20.7-2.31-31.89-4.93,3.61-8.38,10.69-8.4,16.74l-.43,121.3-2.46-2.87c-2.43-58.14,4.85-172.66,15.83-229.69,4.89-12.91.09-30.75,1.73-43.98l3.57,4.32c-.77,13.35-.95,23.69,3.5,35.51l6.65-16.89Z"/><path class="cls-76" d="M1412.8,1604.81c-15.62,12.34-24.8,77.66-37.08,95.28-13.61-10.42,11.74-66.23,14.48-81.98,10.19-16.87,22.27-49.68,33.57-67.72l-10.98,54.42Z"/><path class="cls-191" d="M1426.51,1627.75l-6.65,16.89c-4.45-11.82-4.27-22.16-3.5-35.51l-3.57-4.32,10.98-54.42c5.31,23.61,4.15,50.98,2.74,77.36Z"/><path class="cls-126" d="M1358.98,1609.93l4.82-5.28c-1.24,1.45-3.41,3.82-4.82,5.28Z"/><path class="cls-126" d="M1366.76,1597.03l2.92-2.81-2.92,2.81Z"/><path class="cls-126" d="M1356.21,1614.99l2.69-2.48-2.69,2.48Z"/><path class="cls-126" d="M1390.21,1618.11c.32-1.07,2.25-3.12,2.65-3.3-.41,1-1.86,2.47-2.65,3.3Z"/><path class="cls-126" d="M1351.67,1622.74l4.37-5.17c-1.05,1.47-3.07,3.83-4.37,5.17Z"/><path class="cls-126" d="M1363.96,1602.07l2.73-2.45-2.73,2.45Z"/><path class="cls-112" d="M1390.05,1560.84c.99-1.63,3.65-4.02,5.21-5.28l-5.21,5.28Z"/><path class="cls-206" d="M1780.36,2121.45h7.75c-2.8,2.15-8.88,2.6-13.34,2.12l.33-2.48c1.45.12,3.94.37,5.26.37Z"/><path class="cls-26" d="M1790.7,2118.86v2.58h-10.34c2.16-1.5,7.03-2.58,10.34-2.58Z"/><path class="cls-206" d="M1808.79,2116.28h5.17c-2.74,1.23-7.38,2.42-10.34,2.58v-2.58h5.17Z"/><path class="cls-26" d="M1803.62,2116.28v2.58c-1.71.03-8.49-.02-10.34,0,2.16-1.49,7.03-2.58,10.34-2.58Z"/><path class="cls-206" d="M1801.03,2118.86c-2.16,1.5-7.03,2.58-10.34,2.58v-2.58h10.34Z"/><path class="cls-26" d="M1816.54,2113.7v3.04c-1.63-.52-6.02-.49-7.75-.45,1.39-1.09,5.59-2.58,7.75-2.58Z"/><path class="cls-26" d="M1829.67,2111.55c-1.37.75-5.82,2.15-7.97,2.15,1.51-.79,5.41-1.77,7.97-2.15Z"/><path class="cls-19" d="M1638.24,2147.9c-149.66,39.34-46.39,25.65-141.54-21.48-16.38-8.61-47.6,2.18-41.71-17.89,5.43-14.83,14.71-39.49,23.25-51.69.36-.4.11-1.4.08-2.21,55.86,25.15,110.5,58.68,159.92,93.28Z"/><path class="cls-54" d="M1821.71,2124.03c-94.15,17.43-222.48,36.84-309.96,74.55l-4.2-3.86c-1.94-1.78,16.7-7.23,17-11.62,9.36-.9,19.56-9.62,28.42-11.88,0,0,85.27-23.32,85.27-23.32l111.11-19.34c3.04-.53,9.33,0,10.34-2.31,3.73-.22,10.95.4,12.79-2.54,4.91-.17,12.23.54,15.63-2.26,4,.22,10.01-.58,12.92-2.58,4.1.25,9.14-.97,12.92-2.58,1.71.25,7.77,1.51,9.57,1.87,1.48.3-1.68,5.27-1.82,5.88Z"/><path class="cls-206" d="M1759.69,2126.25c-1,2.31-7.3,1.78-10.34,2.31,2.58-.67,7.21-1.7,10.34-2.31Z"/><path class="cls-206" d="M1772.48,2123.71c-1.25,2.06-6.85,2.84-10.21,2.39,2.33-.74,7.38-1.9,10.21-2.39Z"/><path class="cls-34" d="M1501.52,2012.78c1.44-3.49,4.72-7.97,7.57-10.19-1.92,3.56-4.82,7.65-7.57,10.19Z"/><path class="cls-34" d="M1498.59,2018.22c.45-.91,2.05-2.15,2.86-2.86l-2.86,2.86Z"/><polygon class="cls-19" points="1480.62 2051.68 1480.59 2049.37 1483.45 2049.1 1480.62 2051.68"/><path class="cls-134" d="M1480.76,2054.96l-2.43-.33c.59-.81,1.59-2.3,2.29-2.94l.14,3.28Z"/><path class="cls-9" d="M1475.07,1889.4c-19.4,28.26-38.47,57.23-59.29,84.38-3.81-40.16-4.17-80.66-4.97-120.82,10.29-1.03,51.12,33.17,64.26,36.44Z"/><path class="cls-81" d="M1408.83,1775.19c1.07,66.39,2.03,132.35,6.95,198.59,0,0-5.18,16.25-5.18,16.25-.21.42-6.46-2.56-6.52-4.21-.68-4.3.29-38.39-3.67-40.31-3.16-40.1-2.72-144.04-2.29-185.46.02-6.05,3.47-13.13,8.4-16.74,1.26,11.19,2.73,21.9,2.31,31.89Z"/><path class="cls-88" d="M1769.83,1310.15c-20,89.52-15.06,194.33-13.54,282.43-9.16,5.11-11.9-37.22-19.93-41.61-29.89-16.49-101.18-56.25-131.23-72.6-.03-3.85-.57-12.19.12-15.84,3.68-13.49,5.55-30.37,10.06-43.93.18-.56.06-1.73.06-2.45l12.92-43.85s2.57-5.38,2.57-5.38c.46-6.62,8.06-14.47,9.66-20.6,7.04,2.12,11.39,5.7,17.08,11.28,7.58,7.44,21.76,12.51,27.99,21.04,8.68,11.88,17.73,17.26,30.45,24.9,6.52,3.91,9.23,23.86,22.44,19.09,7.16-2.58,3.22-18.37,4.64-24.79,6.15-27.88,14.43-66.82,21.79-93.28l4.92,5.59Z"/><path class="cls-97" d="M1702.99,1661.52l-118.06,111.28c-1.12-10.39-1.69-16.44-3.44-21.04l.04-12.53c3.06-6.7,1.94-15.62,2.08-23.68.17-10.04,1.37-20.83,1.04-30.8,2.89-23.88,3.35-60.87,6.91-85.25,9.55,3.56,28.4,14.21,38.05,19.07,25.25,11.63,47.39,34.06,73.39,42.95Z"/><path class="cls-171" d="M1592.28,1568.48c.05-7.89-1.67-16.88,2.2-23.26-.08,7.82-.41,16.15-2.2,23.26Z"/><path class="cls-29" d="M1605.13,1478.38l-2.44.15c.47-3.52.45-9.05,2.16-10.82l.28,10.68Z"/><polygon class="cls-139" points="2167.54 1811.58 2167.48 1808.43 2170.31 1808.58 2167.54 1811.58"/><path class="cls-123" d="M2123.63,1894.06c.55-.88,2.15-2.1,3.02-2.81l-3.02,2.81Z"/><path class="cls-57" d="M1206.34,566.11c-2.27-8.82-5.12-20.67-.02-28.88l.02,28.88Z"/><path class="cls-51" d="M1289.68,602.04c-1.51.8-4.12,2.16-5.59,2.74l5.59-2.74Z"/><path class="cls-46" d="M1451.8,1478.05c.9-1.75,3.88-4.16,5.53-5.34-1.2,1.61-3.86,4.02-5.53,5.34Z"/><path class="cls-204" d="M2224.65,1612.67l2.75-5.64c-.31,1.63-2.16,5.02-2.75,5.64Z"/><path class="cls-139" d="M2170.43,1806.32l2.69-3.08c-.28.99-1.91,2.33-2.69,3.08Z"/><path class="cls-129" d="M1906.84,2183.51c3.88-3.67,8.61-7.32,13.29-10.64-3.36,4.72-8.05,7.75-13.29,10.64Z"/><path class="cls-111" d="M1940.48,2157.79l2.68-2.8c-.68.79-1.85,2.3-2.68,2.8Z"/><path class="cls-110" d="M1832.04,2226.91l2.58-2.16-2.58,2.16Z"/><path class="cls-110" d="M1826.87,2229.48l2.58-2.43-2.58,2.43Z"/><polygon class="cls-110" points="1820.92 2231.81 1821.18 2229.45 1824.29 2229.62 1820.92 2231.81"/><path class="cls-158" d="M1777.78,2250.27c-2.56,2.71-6.65,4.73-10.34,4.98l10.34-4.98Z"/><path class="cls-110" d="M1818.86,2232.06c-.83.86-3.52,2.6-5.08,3.19l5.08-3.19Z"/><path class="cls-158" d="M1764.86,2255.43c-2.36,2.84-6.46,4.72-10.34,4.98,2.73-1.55,7.64-3.92,10.34-4.98Z"/><polygon class="cls-158" points="1751.94 2260.6 1746.77 2263.79 1746.77 2260.81 1751.94 2260.6"/><path class="cls-158" d="M1744.19,2263.81c-2.49,2.05-7.15,4.02-10.34,4.45,2.62-1.8,7.17-3.76,10.34-4.45Z"/><path class="cls-158" d="M1731.27,2268.39c-1.3.81-3.93,2.37-5.53,2.91l5.53-2.91Z"/><path class="cls-169" d="M1894.06,1764.75v2.69s-224.76,74.7-224.76,74.7c-22.92,8.05-44.39,24.23-65.89,35.75,14.38-22.82,79-91.4,97.1-110.48,13.74-19.95,33.6-35.92,49.71-55.95,6.07-6.77,13.18-12.48,18.94-18.17-.39,4.83,3.33,7.31,8.31,10.21,17.8,10.37,34.58,22.89,52.91,32.07,14.71,7.38,28.98,12.3,42.74,22.2,5.43,3.9,14.99,7.99,20.93,6.97Z"/><path class="cls-154" d="M1587.23,1643.41c.21,3.62-.39,9.14-.49,12.92l-2.94,2.65c.96,17.29.96,39.46-.2,56.57-2.14,7-2.05,15.59-2.07,23.68.12,7.74-.4,26.29-.66,34.21l-9.66,1.39c-.9-29.89,1.49-60.23,4.24-89.9,2.54-11.39-2.75-62.07,10.29-67.65l1.49,26.14Z"/><path class="cls-169" d="M1304.88,1420.92c-20.83,39.03-42.17,77.95-59.64,118.59-7.68,3.56-14.52,1.15-21.75-3.6l-58.94-38.74c-23.72-15.95-58.12-40.2-81.56-55.66-2.62-1.68-5.75-7.29-6.31-9.53l41.99-52.07c4.92-3.08,9.06-7.89,10.55-13.46,10.06-10.45,22.26-21.3,31.37-32.55,31.2,28.04,89.5,54.59,118.46,76.69,7.39,6.78,16.72,11.64,25.81,10.33Z"/><path class="cls-136" d="M1245.24,1539.51c-45.82,100.88-21.04,115.95-90.33,57.43-13.58-11.07-29.96-15.69-44.23-25.71,0,0-37.43-26.28-37.43-26.28.92.73-75.03-32.7-53-48.8,5.53-3.22,10-10.3,13.34-15.53,4.14-2.86,9.54-11.46,12.47-15.48,10.06-8.36,19.96-24.44,30.62-33.14.56,2.24,3.7,7.85,6.31,9.53,23.3,15.37,57.95,39.78,81.56,55.66,0,0,58.94,38.74,58.94,38.74,7.23,4.75,14.07,7.16,21.75,3.6Z"/><path class="cls-162" d="M1904.39,1761.89c-2.77,2.6-6.45,4.26-10.34,5.55v-2.69c2.67-.46,7.54-2.01,10.34-2.86Z"/><path class="cls-169" d="M1305.04,1418.56l2.62-2.64c-.43.83-1.87,1.98-2.62,2.64Z"/><path class="cls-69" d="M1390.45,2010.29c.02,2.02,1.72,14.24.26,15.82l-6.08-.28c-1.72-2.4-7.73-11.43-10-13.11l.11-2.52c5.08-12.38-2.71-48.04-2.65-61.87h2.58c8.37,11.18-6.88,49.26,15.78,61.97Z"/><path class="cls-26" d="M1390.72,2026.1l-3.6,2.55c-.71-.77-1.94-2.06-2.48-2.83l6.08.28Z"/><path class="cls-94" d="M1410.6,1990.03c-2.1,6.58-4.38,10.46-11.05,19.37,2.06-12.14.8-51.12.87-63.89-.1-1.02,2.38,4.59,2.43,5.98l1.23,34.33c.06,1.65,6.31,4.63,6.52,4.21Z"/><path class="cls-24" d="M1033.59,1480.62v-2.58l5.27-2.72c-1.11,1.57-3.72,4.05-5.27,5.3Z"/><path class="cls-65" d="M1118.68,1379.93c2.24-2.78,5.37-5.69,8.2-7.86-1.36,2.56-5.68,6.18-8.2,7.86Z"/><path class="cls-24" d="M1046.06,1465.14c1.15-1.63,4.1-4.01,5.79-5.27-1.23,1.61-4.07,3.99-5.79,5.27Z"/><path class="cls-182" d="M1684.64,1783.07c4.93-5.58,9.94-11.27,15.87-15.66-3.28,4.55-11.06,12.09-15.87,15.66Z"/><path class="cls-199" d="M1552.97,2171.22c-7.93,2.34-17.72,9.07-25.84,11.73-8.74,1.22-22.62,10-30.87,13.31-2.8.99-4.43,5.88-7.89,4.92-4.64,2.07-7.72,7.64-12.38,7.93-32.35,18.57-58.17,45.4-83.34,72.51,1.21-4.13,8.23-36.12,10.79-38.73.29-.61.15-1.72.13-2.58l2.43-5.17c.29-.61.13-1.85.11-2.58.7-1.74,3.05-5.88,2.39-7.88.67-1.6,3.75-5.74,2.77-7.62,2.31-6.68,40.86-104.87,40.91-108.53h2.81c-5.89,20.07,25.34,9.28,41.71,17.89,11.12,5.85,20.19,11.83,30.83,18.27,21.38,12.94,8.23,23.96,25.44,26.53Z"/><path class="cls-26" d="M1369.51,1912.14c.3,4.08-1.34,15.21,2.58,18.09-1.17,12.2,2.6,46.16,3.69,58.78.72,7.89,2.05,15.15-1.05,21.18-12.88-7.41-2.93-47.19-19.97-54.67-26.08-11.25-87.2-38.17-111.92-50.7.87-5.74,3.16-21.14,5.6-26.27.21-.64.15-1.93.18-2.58.51-1.68,2.99-5.79,1.91-7.66l18.15-51.61c15.54,12.95,23.4,13.45,41.25,25.77l35.27,24.34c18.61,12.84,7.73,21.74,24.3,45.33Z"/><path class="cls-5" d="M1245.83,1886.52c.47-2.89,1.41-6.61,2.61-7.97l-2.61,7.97Z"/><path class="cls-5" d="M1248.62,1875.97l2.16-5.39-2.16,5.39Z"/><path class="cls-144" d="M1408.5,2224.68l2.67-5.04-2.67,5.04Z"/><path class="cls-144" d="M1406.11,2232.56l2.33-5.3-2.33,5.3Z"/><path class="cls-144" d="M1403.57,2240.31l2.43-5.17-2.43,5.17Z"/><path class="cls-144" d="M1400.92,2248.28c.4-1.6,1.77-4.41,2.52-5.38l-2.52,5.38Z"/><polygon class="cls-73" points="1244.95 638.19 1242.64 647.93 1238.33 654.19 1238.44 637.82 1244.95 638.19"/><path class="cls-69" d="M1369.51,1912.14c-16.58-23.59-5.69-32.49-24.3-45.33l-35.27-24.34c-17.85-12.32-25.71-12.82-41.25-25.77l5.22-23.1c.6-1.92,3.63-8.66,3.13-10.65,5.83-15.74,13.11-32.74,17.55-49.1h2.58c-.3,5.53,5.02,7.62,10.32,10.76l38.87,23.02c6.36,3.53,11.22.89,13.42-5.69,0,0,6.05-36.84,6.05-36.84,3.2.7,7.46,5.9,7.2,8.32l-5.15,47.7c-2.77,41.9-4.25,89.33,1.63,131.02Z"/><path class="cls-74" d="M1273.9,1793.6c.4-2.77,1.6-6.48,2.96-8.07l-2.96,8.07Z"/><path class="cls-74" d="M1277.03,1782.95c.32-2.16-.63-4.39,2.41-5.17l-2.41,5.17Z"/><path class="cls-64" d="M1974.16,1730.89c-7.3,6.36-17.08,10.05-26.27,13.27,7.83-5.18,17.48-9.92,26.27-13.27Z"/><path class="cls-64" d="M1976.74,1730.72l2.82-1.8-2.82,1.8Z"/><path class="cls-82" d="M1367.46,2366.93c-.57-4.27-.1-10.22,2.05-12.92,0,4.12-.82,9.68-2.05,12.92Z"/><path class="cls-82" d="M1372.09,2343.67c0,1.55-1.67,4.19-2.58,5.17,0-3.31,1.09-8.17,2.58-10.34v5.17Z"/><path class="cls-143" d="M1829.52,1170.54c2.44-3.46,5.2-7.3,7.83-10.55-.84,4.28-3.92,8.32-7.83,10.55Z"/><path class="cls-24" d="M1020.24,1496.14l5.6-7.77h2.58c-1.86,2.79-5.33,5.87-8.18,7.77Z"/><path class="cls-103" d="M1028.42,1488.37h-2.58c1.91-2.65,5.13-5.62,7.75-7.75l-5.17,7.75Z"/><path class="cls-45" d="M1811.65,1103.26l2.74-2.5c-.5.78-1.97,1.86-2.74,2.5Z"/><path class="cls-45" d="M1808.68,1108.68c.43-.92,2.08-2.11,2.9-2.83l-2.9,2.83Z"/><path class="cls-26" d="M953.17,1591.74l2.69-2.44-2.69,2.44Z"/><path class="cls-26" d="M955.92,1586.71l2.88-2.85-2.88,2.85Z"/><path class="cls-71" d="M971.6,1560.93c.94-1.69,3.58-4.13,5.17-5.38l-5.17,5.38Z"/><path class="cls-40" d="M1341.34,1638.12l2.19-2.71-2.19,2.71Z"/><path class="cls-40" d="M1338.49,1643.47c.44-.88,1.98-2.08,2.77-2.77l-2.77,2.77Z"/><path class="cls-8" d="M2028.38,1703.06l7.81-5.76c-1.99,2.45-4.74,4.13-7.81,5.76Z"/><path class="cls-45" d="M1679.44,1268.85c.5-.88,2.12-2.05,2.96-2.74-.4.93-2.12,2.09-2.96,2.74Z"/><path class="cls-106" d="M1297.37,1728.53c.08-3.19,2.83-8.14,5.29-10.19-.96,2.92-3.41,7.71-5.29,10.19Z"/><polygon class="cls-106" points="1297.16 1733.85 1294.57 1733.85 1297.31 1731.12 1297.16 1733.85"/><path class="cls-106" d="M1302.79,1715.76l2.14-2.58-2.14,2.58Z"/><path class="cls-134" d="M1475.49,2059.88c.4-.95,1.96-2.29,2.75-3.05l-2.75,3.05Z"/><path class="cls-205" d="M1612.79,1426.57c.52-2.82,1.46-6.58,2.52-7.97l-2.52,7.97Z"/><path class="cls-53" d="M884.19,1765.07c.11-3.85.43-8.82,2.45-10.55l-2.45,10.55Z"/><path class="cls-65" d="M1235.12,1232.82l5.3-5.62-5.3,5.62Z"/><path class="cls-65" d="M1240.48,1224.62c-.09.1,2.53-2.51,2.55-2.52-.39.82-1.81,1.91-2.55,2.52Z"/><path class="cls-120" d="M1628.29,1372.31c.47-1.59,1.82-4.36,2.57-5.38l-2.57,5.38Z"/><path class="cls-98" d="M1524.55,2183.1c-.3,4.39-18.94,9.84-17,11.62l4.2,3.86c-11.95,8.47-24.22,14.16-40.27,20.19l4.5-9.66c4.46.38,10.1-4.59,12.38-7.93,3.36.78,5.59-3.14,7.89-4.92,7.01-3.39,21.1-10.15,28.28-13.16Z"/><path class="cls-7" d="M894.53,1720.93l2.43-5.17-2.43,5.17Z"/><path class="cls-7" d="M891.91,1728.9l2.48-5.38-2.48,5.38Z"/><path class="cls-7" d="M889.33,1739.24c.24-1.57,1.76-4.94,2.26-5.55-.11,1.57-1.71,4.89-2.26,5.55Z"/><path class="cls-26" d="M1377.44,2015.59c-.58-.83-2.05-2.13-2.81-2.88l2.81,2.88Z"/><path class="cls-101" d="M1155.26,907.15c-13.31,1.96-34.48,8.27-46.74,10.17,13.97-7.8,30.73-11.3,46.74-10.17Z"/><path class="cls-47" d="M1413.44,1633.07c-2.22,5.97-15.2,117.11-17.12,126.71,0,0-1.09,118.69-1.09,118.69l2.46,2.87c1.41,27.01,3.45,83.93,3.11,110.58,0,0-10.34,18.36-10.34,18.36-22.66-12.7-7.41-50.79-15.78-61.97-.39-40.29-9.86-83.45-6.12-124.05,3.6-68.09,10.27-142.85,35.21-206.75,1.85-5.91,5.91-10.87,9.03-12.72-1.56,7.71,1.1,20.07.64,28.27Z"/><path class="cls-69" d="M1372.09,1930.23c-.91-.95-2.58-3.62-2.58-5.17.9.96,2.58,3.62,2.58,5.17Z"/><path class="cls-76" d="M1411.06,1648.79c.7-5.26.03-11.98,2.38-15.71-.3,5.38-.87,11.46-2.38,15.71Z"/><path class="cls-98" d="M1532.47,2180.85l-5.34,2.1,5.34-2.1Z"/><path class="cls-147" d="M1584.64,1684.75l-.85-25.77,2.94-2.65c-.26,9.57-.26,19.52-2.1,28.42Z"/><path class="cls-16" d="M1581.52,1739.23c.03-8.09-.07-16.68,2.08-23.68-.14,8.06.98,16.98-2.08,23.68Z"/><path class="cls-196" d="M1478.09,2209.05c2.9-2.74,6.62-5.5,10.28-7.87-1.67,2.9-6.98,6.89-10.28,7.87Z"/><path class="cls-196" d="M1490.96,2201.02c1.25-1.44,3.67-3.97,5.31-4.76-1.37,1.35-3.81,3.59-5.31,4.76Z"/></svg>