<?xml version="1.0" encoding="UTF-8"?><svg id="Capa_1" xmlns="http://www.w3.org/2000/svg" xmlns:xlink="http://www.w3.org/1999/xlink" viewBox="0 0 600 600"><defs><style>.cls-1{fill:#fcf9f1;}.cls-2{fill:#ece3d9;}.cls-3{isolation:isolate;}.cls-4{clip-path:url(#clippath);}</style><clipPath id="clippath"><path class="cls-1" d="M218.88,278.4l.24.24-.24-.24ZM283.2,320.88c-5.42,9.98-8.84,34.87-8.4,43.68-.59,5.78.47,15.4.72,19.44.47,7.53-.08,13.13,2.88,18.24,3-2.06,2.18-7.26,1.92-13.44,0,1.38-.48-6.66-.48-11.76-.42-5.85-.58-32.69,2.16-40.56.16-4.91,3.73-10.97,1.2-15.6h0ZM213.36,196.08c14.41.71,21.98-1.73,23.76-14.4-11.33-.19-23.79,3.65-23.76,14.4ZM449.04,313.92c-3.8,45.36-27.71,96.59-72.96,109.44-28.15,8.25-61.97,6.33-85.44,26.16-7.22,5.35-14.17,12.46-14.64,24.48.42.23.4.31.96.48,4.87-5.05,8.42-11.49,15.12-14.88,12.19-8.34,27.7-16.84,43.92-18.48,19.62-3.84,41.85-3.98,58.56-15.84.85.72,1.25,1.27,1.2,2.64-19.42,23.36-58.78,31.07-84,43.68-15,6.07-21.41,16.94-29.28,30.72,1.55-3.23-2.11,4.17-3.12,9.84-.82,4.58-1.34,13.89-1.2,13.68-.53,1.9-1.97,2.73-4.56,2.64-.54-.52-1.45-.87-2.16-1.2-.1-1.37-.44-2.84-.72-4.08-5.97-53.67,15.37-112.71,50.88-153.6,10.3-13.94,24.12-24.52,34.56-36.24,5.43-5.72,10.8-11.4,15.36-17.76,4.46-6.22,8.91-15.48,14.88-19.92,7.62-5.67,18.09-9.74,22.08-18.96,4.48-10.36-1.84-22.64-10.08-24.96-15.59-1.35-21.5,15.62-20.4,28.56.25,4.38,2.44,9.7,1.44,14.88-1.57,4.18-8.83,14.61-13.44,15.12,3.46-10.52-2.84-24.1-1.44-35.76,1.38-16.28,8.11-33.76,20.88-42.96,4.47-3.26,13.46-12.13,21.84-8.64,14.67,10.68,21.53,32.9,16.08,53.28-4.77,16.19-19.81,22.19-33.12,28.8-1.4,1.01-2.49,1.16-4.08,3.36-1.97,2.72-7.15,9.36-4.8,6.96,2.65-2.61-1.88,2.08-3.84,5.52,3.33,1.16,12.9-3.25,16.56-5.28,29.29-12.39,50.89-44.69,39.12-77.28-4.12-10.71-12.92-27.3-23.04-31.44-15.07,1.56-35.46,22.28-38.4,24.96-18.26,22.36-20.39,49-19.44,77.04,3.3,19.49-3.39,21.22-16.32,32.88-24.05,21.26-47.35,44.49-59.52,74.88-15.39,30.32-22.74,64.41-17.52,100.8.41,1.44,1.05,4.77-.24,5.52v-.24c-5.44-7.38-7.56-18.83-11.28-27.84-6.68-19.39,2.8-7.5-24.96-29.52-33.45-28.12-68.2-81.36-39.84-136.8,14.22-30.35,36.77-49.19,58.08-75.84,7.44-10.35,16.42-27.72,7.68-39.84-.76-.78-.82-.93-1.92-.48-1.79,1.87-3.07,2.42-5.28,3.36-5.46,2.32-17.67,4.44-25.2,2.16-3.34-1.01-8.98-4.98-13.68-3.84-6.13,1.49-13.18,2.57-18,5.52-1.97,1.21-5.08,5.78-9.36,6.24-.25-.21-.05-.08-.48-.24-.51-10.17,4.38-20.34,12.48-26.4,5.62-2.64,5.88-4.97,6.72-10.8,11.4-25.74,22.32-10.47,27.12-43.44,1.98-20.55-5.41-11.81-16.32-18.48-7.81-5.09-6.33-21.68,2.88-24.96,12.46-4.16,21.28,2.89,21.12,14.88-.57,5.02-3.74,8.26-5.76,12.48-.58,1.86.84,3.6,1.2,4.8,2.68,9.75-1.11,20.71-4.08,30,14.64-4.58,26.32-23.85,28.08-37.68-1.89-3.75-3.48-3.99-4.08-4.56-8.42-7.62-6.01-19.82,2.64-24.72,19.78-9,31.14,17.32,13.68,26.4-2.61,1.55-6.5,1.39-8.16,3.84-4.2,13.02-9.52,24.16-20.4,33.6.16,0-.02.36-.24,1.2,15.25-3.36,28.24-12.53,40.08-22.08,3.09-6.85-.15-19.72,10.32-24.24,19.64-8.49,30.89,21.13,9.84,27.36-7.98,2.35-12.42-3.6-16.32-1.2-10.1,8.24-20.62,14.54-31.92,20.4h.48c38.61,6.51,45.73,50.18,37.68,84.96-6.99,21.02-18.55,39.37-28.08,59.04-17.99,39.31-27.77,87.59-15.12,132.48,2.14-7.98-.27-18.82,1.44-28.32,3.28-29.94,13.06-57.28,25.68-81.84,10.77-17.43,36.22-57.8,54.48-64.8.25.21.05.09.48.24v.24c-5.35,17.94-10.91,36.13-11.76,55.44-.53-6.38-1.93,34.56-.96,42h.48c2.31-1.44,6.35-4.82,5.76-8.4.67-5.91.87-14.02,1.2-20.4.99-18.21,1.93-37.77,6.72-53.28,4.22-12.51,9.32-23.29,16.32-32.88,13.24-14.62,26.58-28.58,33.12-48,5.83-17.02,7.92-35.62,5.28-53.52-5.93-20.99-11.27-39.06-27.36-51.36-3-3.26-11.26-4.69-11.28-9.12,5.99-3.89,12,1.76,16.08,4.32,13.77,7.7,27.18,21.7,37.92,33.84,34.16,47.83,66.57,110.76,49.68,171.84-4.36,19.18-12.77,32.73-28.32,44.64-29,25.55-87.57,20.87-104.16,56.64h.24c30.72-23.18,71.49-25.81,104.4-44.64,13.66-9.62,27.55-20.36,32.16-36.72.35-.2.69-.43.96-.72.72.08,1.44.16,2.16.24h0Z"/></clipPath></defs><g class="cls-3"><path class="cls-1" d="M218.88,278.4l.24.24-.24-.24ZM283.2,320.88c-5.42,9.98-8.84,34.87-8.4,43.68-.59,5.78.47,15.4.72,19.44.47,7.53-.08,13.13,2.88,18.24,3-2.06,2.18-7.26,1.92-13.44,0,1.38-.48-6.66-.48-11.76-.42-5.85-.58-32.69,2.16-40.56.16-4.91,3.73-10.97,1.2-15.6h0ZM213.36,196.08c14.41.71,21.98-1.73,23.76-14.4-11.33-.19-23.79,3.65-23.76,14.4ZM449.04,313.92c-3.8,45.36-27.71,96.59-72.96,109.44-28.15,8.25-61.97,6.33-85.44,26.16-7.22,5.35-14.17,12.46-14.64,24.48.42.23.4.31.96.48,4.87-5.05,8.42-11.49,15.12-14.88,12.19-8.34,27.7-16.84,43.92-18.48,19.62-3.84,41.85-3.98,58.56-15.84.85.72,1.25,1.27,1.2,2.64-19.42,23.36-58.78,31.07-84,43.68-15,6.07-21.41,16.94-29.28,30.72,1.55-3.23-2.11,4.17-3.12,9.84-.82,4.58-1.34,13.89-1.2,13.68-.53,1.9-1.97,2.73-4.56,2.64-.54-.52-1.45-.87-2.16-1.2-.1-1.37-.44-2.84-.72-4.08-5.97-53.67,15.37-112.71,50.88-153.6,10.3-13.94,24.12-24.52,34.56-36.24,5.43-5.72,10.8-11.4,15.36-17.76,4.46-6.22,8.91-15.48,14.88-19.92,7.62-5.67,18.09-9.74,22.08-18.96,4.48-10.36-1.84-22.64-10.08-24.96-15.59-1.35-21.5,15.62-20.4,28.56.25,4.38,2.44,9.7,1.44,14.88-1.57,4.18-8.83,14.61-13.44,15.12,3.46-10.52-2.84-24.1-1.44-35.76,1.38-16.28,8.11-33.76,20.88-42.96,4.47-3.26,13.46-12.13,21.84-8.64,14.67,10.68,21.53,32.9,16.08,53.28-4.77,16.19-19.81,22.19-33.12,28.8-1.4,1.01-2.49,1.16-4.08,3.36-1.97,2.72-7.15,9.36-4.8,6.96,2.65-2.61-1.88,2.08-3.84,5.52,3.33,1.16,12.9-3.25,16.56-5.28,29.29-12.39,50.89-44.69,39.12-77.28-4.12-10.71-12.92-27.3-23.04-31.44-15.07,1.56-35.46,22.28-38.4,24.96-18.26,22.36-20.39,49-19.44,77.04,3.3,19.49-3.39,21.22-16.32,32.88-24.05,21.26-47.35,44.49-59.52,74.88-15.39,30.32-22.74,64.41-17.52,100.8.41,1.44,1.05,4.77-.24,5.52v-.24c-5.44-7.38-7.56-18.83-11.28-27.84-6.68-19.39,2.8-7.5-24.96-29.52-33.45-28.12-68.2-81.36-39.84-136.8,14.22-30.35,36.77-49.19,58.08-75.84,7.44-10.35,16.42-27.72,7.68-39.84-.76-.78-.82-.93-1.92-.48-1.79,1.87-3.07,2.42-5.28,3.36-5.46,2.32-17.67,4.44-25.2,2.16-3.34-1.01-8.98-4.98-13.68-3.84-6.13,1.49-13.18,2.57-18,5.52-1.97,1.21-5.08,5.78-9.36,6.24-.25-.21-.05-.08-.48-.24-.51-10.17,4.38-20.34,12.48-26.4,5.62-2.64,5.88-4.97,6.72-10.8,11.4-25.74,22.32-10.47,27.12-43.44,1.98-20.55-5.41-11.81-16.32-18.48-7.81-5.09-6.33-21.68,2.88-24.96,12.46-4.16,21.28,2.89,21.12,14.88-.57,5.02-3.74,8.26-5.76,12.48-.58,1.86.84,3.6,1.2,4.8,2.68,9.75-1.11,20.71-4.08,30,14.64-4.58,26.32-23.85,28.08-37.68-1.89-3.75-3.48-3.99-4.08-4.56-8.42-7.62-6.01-19.82,2.64-24.72,19.78-9,31.14,17.32,13.68,26.4-2.61,1.55-6.5,1.39-8.16,3.84-4.2,13.02-9.52,24.16-20.4,33.6.16,0-.02.36-.24,1.2,15.25-3.36,28.24-12.53,40.08-22.08,3.09-6.85-.15-19.72,10.32-24.24,19.64-8.49,30.89,21.13,9.84,27.36-7.98,2.35-12.42-3.6-16.32-1.2-10.1,8.24-20.62,14.54-31.92,20.4h.48c38.61,6.51,45.73,50.18,37.68,84.96-6.99,21.02-18.55,39.37-28.08,59.04-17.99,39.31-27.77,87.59-15.12,132.48,2.14-7.98-.27-18.82,1.44-28.32,3.28-29.94,13.06-57.28,25.68-81.84,10.77-17.43,36.22-57.8,54.48-64.8.25.21.05.09.48.24v.24c-5.35,17.94-10.91,36.13-11.76,55.44-.53-6.38-1.93,34.56-.96,42h.48c2.31-1.44,6.35-4.82,5.76-8.4.67-5.91.87-14.02,1.2-20.4.99-18.21,1.93-37.77,6.72-53.28,4.22-12.51,9.32-23.29,16.32-32.88,13.24-14.62,26.58-28.58,33.12-48,5.83-17.02,7.92-35.62,5.28-53.52-5.93-20.99-11.27-39.06-27.36-51.36-3-3.26-11.26-4.69-11.28-9.12,5.99-3.89,12,1.76,16.08,4.32,13.77,7.7,27.18,21.7,37.92,33.84,34.16,47.83,66.57,110.76,49.68,171.84-4.36,19.18-12.77,32.73-28.32,44.64-29,25.55-87.57,20.87-104.16,56.64h.24c30.72-23.18,71.49-25.81,104.4-44.64,13.66-9.62,27.55-20.36,32.16-36.72.35-.2.69-.43.96-.72.72.08,1.44.16,2.16.24h0Z"/><g class="cls-4"><rect class="cls-2" x="57.51" y="48.25" width="498.3" height="519.68"/></g></g></svg>